<?xml version="1.0" encoding="utf-8"?>
<!-- Generator: Adobe Illustrator 27.5.0, SVG Export Plug-In . SVG Version: 6.00 Build 0)  -->
<svg version="1.1" xmlns="http://www.w3.org/2000/svg" xmlns:xlink="http://www.w3.org/1999/xlink" x="0px" y="0px"
	 viewBox="0 0 500 500" style="enable-background:new 0 0 500 500;" xml:space="preserve">
<g id="Background_Simple">
	<g>
		<path style="fill:#92E3A9;" d="M311.74,39.886c0,0-78.574-24.379-149.972,23.108C90.371,110.48,59.596,199.849,32.762,271.534
			c-26.834,71.685-2.407,142.317,57.417,172.375c59.824,30.057,94.87-19.691,174.938-25.572
			c80.068-5.881,102.594,4.894,165.47-44.388c62.877-49.281,66.13-159.258,7.097-237.921
			C378.649,57.365,311.74,39.886,311.74,39.886z"/>
		<path style="opacity:0.7;fill:#FFFFFF;" d="M311.74,39.886c0,0-78.574-24.379-149.972,23.108
			C90.371,110.48,59.596,199.849,32.762,271.534c-26.834,71.685-2.407,142.317,57.417,172.375
			c59.824,30.057,94.87-19.691,174.938-25.572c80.068-5.881,102.594,4.894,165.47-44.388c62.877-49.281,66.13-159.258,7.097-237.921
			C378.649,57.365,311.74,39.886,311.74,39.886z"/>
	</g>
</g>
<g id="Cereal">
	<g>
		<g>
			
				<rect x="157.312" y="114.302" transform="matrix(0.9877 -0.1563 0.1563 0.9877 -27.9055 35.6065)" style="fill:#FFFFFF;stroke:#263238;stroke-linecap:round;stroke-linejoin:round;stroke-miterlimit:10;" width="110.266" height="161.866"/>
			
				<rect x="169.851" y="112.318" transform="matrix(0.9877 -0.1563 0.1563 0.9877 -27.4412 37.5421)" style="fill:#FFFFFF;stroke:#263238;stroke-linecap:round;stroke-linejoin:round;stroke-miterlimit:10;" width="110.266" height="161.866"/>
		</g>
		<polygon style="fill:#92E3A9;" points="219.957,150.333 214.456,154.276 218.855,159.419 212.338,161.242 214.712,167.579 
			207.965,167.064 208.029,173.831 201.864,171.039 199.61,177.42 194.772,172.688 190.471,177.912 187.544,171.811 181.715,175.25 
			181.051,168.515 174.398,169.753 176.077,163.197 169.402,162.085 173.222,156.499 167.329,153.171 172.83,149.229 
			168.431,144.086 174.948,142.262 172.574,135.925 179.321,136.441 179.257,129.673 185.422,132.466 187.676,126.085 
			192.514,130.817 196.815,125.592 199.743,131.693 205.571,128.255 206.235,134.989 212.888,133.751 211.209,140.307 
			217.884,141.419 214.064,147.005 		"/>
		<g>
			<path style="fill:#263238;" d="M187.87,211.045c-1.8,0.433-3.303,0.449-4.506,0.048c-1.203-0.4-2.163-1.138-2.877-2.214
				c-0.714-1.075-1.262-2.411-1.648-4.009l-2.053-8.533c-0.394-1.636-0.516-3.096-0.369-4.378c0.146-1.282,0.666-2.37,1.558-3.265
				c0.891-0.895,2.238-1.559,4.038-1.992c1.76-0.423,3.204-0.466,4.331-0.13c1.126,0.338,2.019,0.973,2.678,1.906
				c0.659,0.934,1.15,2.073,1.473,3.417l0.493,2.046l-5.137,1.235l-0.569-2.367c-0.112-0.468-0.245-0.909-0.396-1.326
				c-0.152-0.416-0.379-0.738-0.682-0.965c-0.303-0.226-0.738-0.271-1.305-0.134c-0.548,0.132-0.919,0.376-1.113,0.732
				c-0.193,0.356-0.272,0.761-0.235,1.216c0.036,0.455,0.114,0.926,0.231,1.413l2.679,11.134c0.127,0.526,0.287,0.998,0.481,1.415
				c0.194,0.417,0.453,0.726,0.781,0.925c0.327,0.199,0.746,0.238,1.255,0.115c0.547-0.132,0.905-0.367,1.072-0.706
				c0.166-0.338,0.225-0.739,0.176-1.201c-0.049-0.462-0.129-0.927-0.243-1.395l-0.597-2.484l5.136-1.236l0.492,2.046
				c0.323,1.344,0.412,2.596,0.267,3.753c-0.146,1.159-0.639,2.163-1.479,3.015C190.961,209.977,189.651,210.617,187.87,211.045z"/>
			<path style="fill:#263238;" d="M199.97,202.969l-6.458-23.473l10.594-2.915l0.973,3.535l-5.384,1.482l1.602,5.825l4.103-1.13
				l0.989,3.594l-4.104,1.129l1.93,7.013l5.442-1.497l0.965,3.507L199.97,202.969z"/>
			<path style="fill:#263238;" d="M213.935,204.071l-3.805-24.047l6.649-1.052c1.63-0.258,3.069-0.303,4.318-0.135
				c1.249,0.167,2.279,0.658,3.091,1.473c0.811,0.815,1.35,2.064,1.616,3.746c0.157,0.99,0.216,1.883,0.18,2.68
				c-0.037,0.797-0.225,1.511-0.562,2.143c-0.339,0.632-0.875,1.198-1.611,1.7l5.151,11.114l-5.515,0.873l-4.359-10.357
				l-1.521,0.241l1.705,10.776L213.935,204.071z M217.082,189.393l1.491-0.236c0.756-0.12,1.321-0.346,1.696-0.679
				c0.376-0.333,0.608-0.765,0.696-1.297c0.09-0.532,0.078-1.153-0.035-1.866c-0.163-1.029-0.478-1.8-0.947-2.315
				c-0.469-0.514-1.21-0.691-2.223-0.531l-1.73,0.274L217.082,189.393z"/>
			<path style="fill:#263238;" d="M229.238,195.142l-3.805-24.047l10.853-1.718l0.573,3.622l-5.516,0.873l0.944,5.967l4.204-0.665
				l0.583,3.681l-4.204,0.665l1.137,7.184l5.576-0.882l0.568,3.592L229.238,195.142z"/>
			<path style="fill:#263238;" d="M241.84,198.881l0.756-24.768l6.083-0.963l8.307,23.334l-4.919,0.778l-1.609-4.949l-3.547,0.561
				l-0.031,5.208L241.84,198.881z M246.885,189.623l2.563-0.406l-2.766-9.178L246.885,189.623z"/>
			<path style="fill:#263238;" d="M259.499,194.535l0.344-24.343l5.402,0.076l-0.291,20.707l5.614,0.079l-0.051,3.636
				L259.499,194.535z"/>
		</g>
		<g>
			<path style="fill:#92E3A9;stroke:#263238;stroke-miterlimit:10;" d="M187.791,229.652c4.938,19.997,25.378,33.106,47.241,29.646
				c21.863-3.46,37.257-22.239,35.779-42.784L187.791,229.652z"/>
			
				<ellipse transform="matrix(0.9877 -0.1563 0.1563 0.9877 -31.6578 38.4893)" style="fill:#92E3A9;stroke:#263238;stroke-miterlimit:10;" cx="228.898" cy="220.535" rx="42.419" ry="22.643"/>
			<path style="fill:#FFFFFF;stroke:#263238;stroke-linecap:round;stroke-linejoin:round;stroke-miterlimit:10;" d="
				M227.269,206.573c-19.804,3.134-34.334,15.307-32.454,27.19c0.287,1.816,0.945,3.518,1.917,5.09
				c8.494,4.52,21.573,6.282,35.705,4.045c15.166-2.4,27.768-8.804,34.103-16.409c0.198-1.353,0.208-2.716-0.008-4.076
				C264.652,210.531,247.073,203.439,227.269,206.573z"/>
		</g>
	</g>
</g>
<g id="Bread">
	<g>
		<g>
			<path style="fill:#FFFFFF;stroke:#263238;stroke-linecap:round;stroke-linejoin:round;stroke-miterlimit:10;" d="M396.589,41.724
				c-2.043-4.396-5.43-7.374-10.923-7.327c-11.726,0.101-16.193,15.309-18.797,24.345c-15.286,53.051-23.761,108.128-31.993,162.85
				c-1.577,10.482-3.624,20.888-5.119,31.382c-1.327,9.312-3.756,20.637-1.127,29.874c1.914,6.723,9.983,12.477,17.073,10.078
				c7.344-2.485,8.631-12.763,10.64-19.151c8.902-28.309,15.316-57.271,21.415-86.288c6.156-29.288,12.177-58.629,17.046-88.174
				c0.446-2.705,0.883-5.41,1.311-8.118C398.52,75.993,403.393,56.366,396.589,41.724z"/>
			<g>
				<path style="fill:#FFFFFF;stroke:#263238;stroke-linecap:round;stroke-linejoin:round;stroke-miterlimit:10;" d="M396.216,62.34
					c2.261-2.487-1.184-6.042-3.757-3.88c-3.54,2.976-8.465,7.23-13.779,12.164c-10.375,9.634-14.821,15.933-17.044,21.12
					c-2.223,5.187-4.099,9.343-1.864,8.933c2.235-0.41,6.311-8.933,12.239-15.602c5.928-6.669,20.008-18.156,24.084-22.602
					C396.136,62.429,396.176,62.385,396.216,62.34z"/>
				<path style="fill:#FFFFFF;stroke:#263238;stroke-linecap:round;stroke-linejoin:round;stroke-miterlimit:10;" d="M390.658,97.17
					c2.261-2.487-1.184-6.042-3.757-3.88c-3.54,2.976-8.465,7.23-13.779,12.164c-10.375,9.634-14.821,15.933-17.044,21.12
					c-2.223,5.187-4.099,9.343-1.864,8.932c2.235-0.41,6.311-8.932,12.239-15.602c5.928-6.67,20.008-18.156,24.084-22.602
					C390.578,97.258,390.618,97.214,390.658,97.17z"/>
				<path style="fill:#FFFFFF;stroke:#263238;stroke-linecap:round;stroke-linejoin:round;stroke-miterlimit:10;" d="
					M383.618,136.816c2.261-2.487-1.184-6.042-3.757-3.88c-3.54,2.976-8.465,7.23-13.779,12.164
					c-10.375,9.634-14.821,15.933-17.044,21.12c-2.223,5.187-4.099,9.343-1.864,8.932c2.235-0.41,6.31-8.932,12.239-15.602
					c5.928-6.67,20.008-18.156,24.084-22.602C383.538,136.904,383.578,136.86,383.618,136.816z"/>
				<path style="fill:#FFFFFF;stroke:#263238;stroke-linecap:round;stroke-linejoin:round;stroke-miterlimit:10;" d="
					M375.837,177.574c2.261-2.487-1.184-6.042-3.757-3.88c-3.54,2.976-8.465,7.23-13.779,12.164
					c-10.375,9.634-14.821,15.933-17.044,21.12c-2.223,5.187-4.099,9.343-1.864,8.932c2.235-0.41,6.31-8.932,12.239-15.602
					c5.928-6.669,20.008-18.156,24.084-22.602C375.757,177.662,375.797,177.618,375.837,177.574z"/>
				<path style="fill:#FFFFFF;stroke:#263238;stroke-linecap:round;stroke-linejoin:round;stroke-miterlimit:10;" d="
					M369.168,217.961c2.261-2.487-1.184-6.042-3.757-3.88c-3.54,2.976-8.465,7.23-13.779,12.164
					c-10.375,9.634-14.821,15.933-17.044,21.12c-2.223,5.187-4.099,9.343-1.864,8.932c2.235-0.41,6.31-8.932,12.239-15.602
					s20.008-18.156,24.084-22.602C369.087,218.049,369.128,218.005,369.168,217.961z"/>
			</g>
		</g>
		<g>
			<path style="fill:#FFFFFF;stroke:#263238;stroke-linecap:round;stroke-linejoin:round;stroke-miterlimit:10;" d="M349.409,40.606
				c-2.998-3.809-6.979-5.93-12.314-4.622c-11.389,2.793-12.243,18.62-12.701,28.012c-2.689,55.144,1.717,110.694,6.277,165.844
				c0.874,10.564,1.272,21.162,2.228,31.719c0.848,9.368,1.086,20.948,5.767,29.334c3.407,6.104,12.582,9.85,18.931,5.886
				c6.576-4.106,5.468-14.405,5.955-21.084c2.16-29.596,1.748-59.258,1.018-88.9c-0.737-29.918-1.618-59.858-3.667-89.732
				c-0.188-2.735-0.384-5.469-0.589-8.202C359.162,73.515,359.395,53.293,349.409,40.606z"/>
			<g>
				<path style="fill:#FFFFFF;stroke:#263238;stroke-linecap:round;stroke-linejoin:round;stroke-miterlimit:10;" d="
					M353.783,60.756c1.629-2.94-2.54-5.609-4.548-2.913c-2.762,3.71-6.578,8.981-10.616,15.004
					c-7.884,11.759-10.764,18.911-11.736,24.471c-0.972,5.559-1.843,10.035,0.238,9.122c2.081-0.913,4.09-10.143,8.327-17.996
					c4.238-7.853,15.302-22.267,18.247-27.531C353.725,60.861,353.754,60.809,353.783,60.756z"/>
				<path style="fill:#FFFFFF;stroke:#263238;stroke-linecap:round;stroke-linejoin:round;stroke-miterlimit:10;" d="
					M356.375,95.931c1.629-2.94-2.54-5.609-4.548-2.913c-2.762,3.71-6.578,8.981-10.616,15.004
					c-7.884,11.759-10.764,18.911-11.736,24.471c-0.972,5.559-1.843,10.035,0.238,9.122c2.081-0.913,4.09-10.143,8.327-17.996
					c4.238-7.853,15.302-22.267,18.247-27.531C356.318,96.035,356.347,95.983,356.375,95.931z"/>
				<path style="fill:#FFFFFF;stroke:#263238;stroke-linecap:round;stroke-linejoin:round;stroke-miterlimit:10;" d="
					M358.632,136.134c1.629-2.94-2.54-5.609-4.548-2.913c-2.762,3.71-6.578,8.981-10.616,15.004
					c-7.884,11.76-10.764,18.911-11.736,24.471c-0.972,5.559-1.843,10.035,0.238,9.122c2.081-0.913,4.09-10.143,8.327-17.996
					c4.238-7.853,15.302-22.267,18.247-27.531C358.574,136.238,358.604,136.186,358.632,136.134z"/>
				<path style="fill:#FFFFFF;stroke:#263238;stroke-linecap:round;stroke-linejoin:round;stroke-miterlimit:10;" d="
					M360.424,177.589c1.629-2.94-2.54-5.609-4.548-2.913c-2.762,3.71-6.578,8.981-10.616,15.004
					c-7.884,11.759-10.764,18.911-11.736,24.471c-0.972,5.559-1.843,10.035,0.238,9.122c2.081-0.913,4.09-10.143,8.327-17.996
					c4.237-7.853,15.302-22.267,18.247-27.531C360.365,177.693,360.395,177.641,360.424,177.589z"/>
				<path style="fill:#FFFFFF;stroke:#263238;stroke-linecap:round;stroke-linejoin:round;stroke-miterlimit:10;" d="
					M363.211,218.428c1.629-2.94-2.54-5.609-4.548-2.913c-2.762,3.71-6.578,8.981-10.616,15.004
					c-7.884,11.76-10.764,18.911-11.736,24.471c-0.972,5.559-1.843,10.035,0.238,9.122c2.081-0.913,4.089-10.143,8.327-17.996
					c4.237-7.853,15.302-22.267,18.247-27.531C363.153,218.533,363.182,218.48,363.211,218.428z"/>
			</g>
		</g>
		<polygon style="fill:#CCCCCC;stroke:#263238;stroke-miterlimit:10;" points="402.392,115.309 397.479,112.747 397.185,112.727 
			391.994,114.684 386.933,112.047 381.594,114.06 376.536,111.423 371.201,113.436 366.142,110.799 360.809,112.812 
			355.752,110.175 350.414,112.188 345.355,109.55 340.019,111.563 334.96,108.926 329.624,110.939 324.566,108.302 
			319.231,110.315 314.173,107.678 308.839,109.691 303.781,107.054 298.446,109.067 293.392,106.43 288.056,108.443 283,105.807 
			277.668,107.82 275.34,106.605 263.893,294.672 366.683,303.287 406.507,113.757 		"/>
	</g>
</g>
<g id="Fruits">
	<g>
		<path style="fill:#263238;stroke:#263238;stroke-miterlimit:10;" d="M119.539,114.598l-0.905-14.779l7.239,14.779
			c0,0,2.715-8.445,3.921-11.763s2.413-6.032,2.413-6.032l3.619,17.494l8.144-12.668l2.413,9.953l-0.905,9.953h-25.336
			L119.539,114.598z"/>
		<path style="fill:#BDBDBD;stroke:#263238;stroke-miterlimit:10;" d="M114.713,140.236c0,0-3.016-8.747-5.731-15.986
			c-2.715-7.239-8.445-15.986-8.445-15.986s5.731,5.429,9.049,8.747c3.318,3.318,6.937,8.445,6.937,8.445s-1.81-9.652-3.318-14.176
			s-5.128-14.478-5.128-14.478s8.445,8.747,10.557,10.858c2.111,2.111,3.921,4.524,3.921,4.524l-1.81-11.763l6.636,10.858
			l4.524,6.334c0,0,2.715-8.445,4.826-12.065c2.111-3.619,4.524-6.937,5.128-7.842c0.603-0.905-2.714,14.176-2.714,14.176
			l9.35-15.081l4.826-6.334c0,0-4.223,19.304-4.223,23.225c0,3.921-1.508,8.747-1.508,8.747l6.937-14.478
			c0,0,0.905,9.652-0.302,19.605c-1.206,9.954-0.603,11.16-2.715,16.589c-2.111,5.429-4.826,12.065-4.826,12.065l-2.715,3.619
			l-22.923-0.905L114.713,140.236z"/>
		<path style="fill:#BDBDBD;stroke:#263238;stroke-miterlimit:10;" d="M115.618,157.73c0,0-8.144-12.065-8.747-17.796
			c-0.603-5.731-2.413-14.478-2.413-14.478s3.318,5.128,9.049,9.953c5.731,4.826,9.049,9.652,9.049,9.652s-0.905-6.334-0.905-11.16
			s1.81-12.97,1.81-12.97s7.842,15.986,9.35,19.605c0,0,2.715-6.032,5.128-9.35c2.413-3.318,7.54-9.652,7.54-9.652
			s-0.82,12.535,0.603,16.891c1.423,4.356,0.603,17.796,0.603,17.796s6.937-15.684,8.747-19.304
			c1.81-3.619,11.763-12.668,11.763-12.668s-3.62,12.97-4.524,17.494c-0.905,4.524-3.318,9.35-3.921,10.255
			c-0.603,0.905-2.111,4.223-2.111,4.223l-6.636,10.858l-6.937,8.445l-19.002-1.508L115.618,157.73z"/>
		<path style="fill:#BDBDBD;stroke:#263238;stroke-miterlimit:10;" d="M115.014,164.064c0,0-5.128-4.223-7.239-10.858
			c-2.111-6.636-3.318-11.16-3.318-11.16s5.128,4.524,9.35,8.747c4.223,4.223,11.461,9.35,11.461,9.35s-0.302-9.35,1.508-15.986
			c1.81-6.636,4.223-13.573,4.223-13.573s6.032,23.526,6.636,26.542c0.603,3.016,1.044,6.215,1.044,6.215s2.877-16.47,4.989-20.995
			c2.111-4.524,5.429-9.953,5.429-9.953s-0.302,14.478,0,19.303c0.302,4.826,0,10.255,0,10.255s2.413-4.826,5.429-7.842
			c3.016-3.016,19.002-10.858,19.002-10.858s-9.35,8.747-10.858,11.16c-1.508,2.413-14.094,14.703-14.094,14.703l-28.736,1.584
			L115.014,164.064z"/>
		<g>
			<g>
				<path style="fill:#92E3A9;stroke:#263238;stroke-miterlimit:10;" d="M121.305,175.633c0,0-13.509,5.185-20.878,25.108
					c-7.369,19.923-5.049,41.346-0.546,50.762c4.503,9.415,12.281,17.739,29.475,18.694s29.065-2.32,36.707-19.377
					c7.642-17.057,6.277-37.253,2.183-49.397c-4.094-12.145-12.951-20.034-16.375-22.788
					C145.594,173.586,130.311,170.038,121.305,175.633z"/>
				<g>
					<path style="fill:none;stroke:#263238;stroke-miterlimit:10;" d="M125.976,211.628c1.377,2.753,1.627,3.254,1.627,3.879"/>
					<path style="fill:none;stroke:#263238;stroke-miterlimit:10;" d="M113.086,217.885c0,0-0.501-3.629,2.253-7.258
						c2.753-3.629,3.254-4.38,5.006-4.005c1.498,0.321,3.544,1.739,4.966,3.864"/>
					<path style="fill:none;stroke:#263238;stroke-miterlimit:10;" d="M123.848,206.622c0,0,1.251-2.503,3.379-4.505
						c2.127-2.002,2.878-2.503,2.878-2.503s6.382,2.378,7.509,6.758"/>
					<path style="fill:none;stroke:#263238;stroke-miterlimit:10;" d="M137.489,214.631c0,0-1.126-2.753-0.25-4.255
						c0.876-1.502,2.127-4.881,4.38-4.38c2.253,0.501,7.008,1.001,7.884,4.38"/>
					<path style="fill:none;stroke:#263238;stroke-miterlimit:10;" d="M126.727,222.891c0,0,0.501-4.756,2.378-6.382
						c1.877-1.627,4.63-3.254,4.881-3.629c0.25-0.375,4.755,1.752,6.633,4.63c1.877,2.878,1.502,4.38,1.502,4.38"/>
					<path style="fill:none;stroke:#263238;stroke-miterlimit:10;" d="M138.741,228.647c0,0,1.377-2.753,2.753-4.756"/>
					<path style="fill:none;stroke:#263238;stroke-miterlimit:10;" d="M143.246,222.14c0,0,1.126-2.503,2.628-2.253
						c1.502,0.25,5.506,2.628,6.257,4.13c0.751,1.502,0.751,2.378,0.751,2.378"/>
					<path style="fill:none;stroke:#263238;stroke-miterlimit:10;" d="M149.253,219.512c0,0-0.501-4.005,0.876-6.007
						c1.377-2.002,1.001-2.628,2.378-3.254c1.377-0.626,5.506,1.251,6.132,3.629"/>
					<path style="fill:none;stroke:#263238;stroke-miterlimit:10;" d="M107.542,221.348c1.604-1.506,3.166-3.588,3.166-3.588
						s2.002,2.253,4.13,3.88c2.128,1.627,2.628,3.754,2.628,3.754"/>
					<path style="fill:none;stroke:#263238;stroke-miterlimit:10;" d="M105.702,224.517c0,0-0.289-0.962,0.822-2.212"/>
					<path style="fill:none;stroke:#263238;stroke-miterlimit:10;" d="M129.363,228.077c0.949,1.885,0.868,2.697,0.868,2.697"/>
					<path style="fill:none;stroke:#263238;stroke-miterlimit:10;" d="M118.331,226.749c0.542-0.947,1.113-1.78,1.638-2.231
						c1.752-1.502,2.002-2.128,2.002-2.128s4.63,1.126,6.508,4.13"/>
					<path style="fill:none;stroke:#263238;stroke-miterlimit:10;" d="M115.964,231.776c0,0,0.482-1.23,1.172-2.702"/>
					<path style="fill:none;stroke:#263238;stroke-miterlimit:10;" d="M128.229,236.031c0,0,2.002-3.379,4.881-5.381
						c2.878-2.002,7.258-0.125,9.511,3.128"/>
					<path style="fill:none;stroke:#263238;stroke-miterlimit:10;" d="M150.129,234.154c0,0,1.251-6.883,4.13-8.635
						c2.878-1.752,7.258-1.377,8.009,4.255"/>
					<path style="fill:none;stroke:#263238;stroke-miterlimit:10;" d="M159.64,222.515c0,0-0.751-2.128,0.626-4.881
						c1.377-2.753,1.752-3.003,2.127-3.129c0.375-0.125,1.877,0.25,3.254,1.877c1.377,1.627,2.002,3.129,2.002,3.129"/>
					<path style="fill:none;stroke:#263238;stroke-miterlimit:10;" d="M162.193,203.586c1.02,1.21,2.077,3.036,2.077,3.036"/>
					<path style="fill:none;stroke:#263238;stroke-miterlimit:10;" d="M155.885,208.999c0,0-0.751-2.253,0.25-4.505
						c1.001-2.253,2.127-3.379,2.127-3.379s1.337,0.493,2.481,1.214"/>
					<path style="fill:none;stroke:#263238;stroke-miterlimit:10;" d="M143.7,202.089c-0.066-0.951,0.012-1.917,0.422-2.6
						c1.126-1.877,2.878-3.629,3.254-3.88c0.375-0.25,1.877,0.501,3.379,1.752c1.502,1.252,2.253,2.002,2.503,3.629"/>
					<path style="fill:none;stroke:#263238;stroke-miterlimit:10;" d="M144.372,205.37c0,0-0.332-0.967-0.537-2.173"/>
					<path style="fill:none;stroke:#263238;stroke-miterlimit:10;" d="M131.607,199.488c0,0-0.501-1.877,0.876-3.88
						c1.377-2.002,4.63-5.131,4.63-5.131s3.88,1.627,5.131,3.254c1.251,1.627,1.877,4.005,1.877,4.005"/>
					<path style="fill:none;stroke:#263238;stroke-miterlimit:10;" d="M159.236,195.082c0.757,1.996,1.155,3.53,1.155,3.53"/>
					<path style="fill:none;stroke:#263238;stroke-miterlimit:10;" d="M151.255,195.234c0,0-2.253-2.253-0.751-4.881
						c1.502-2.628,2.503-2.878,2.503-2.878s3.254,1.251,4.881,4.505c0.225,0.45,0.435,0.901,0.631,1.346"/>
					<path style="fill:none;stroke:#263238;stroke-miterlimit:10;" d="M125.241,196.452c0.257,0.27,0.467,0.535,0.61,0.784
						c1.001,1.752,0.626,4.38,0.626,4.38"/>
					<path style="fill:none;stroke:#263238;stroke-miterlimit:10;" d="M113.837,201.866c0,0,0.501-3.504,1.627-4.38
						c1.126-0.876,5.006-4.505,5.006-4.505s2.304,1.316,3.952,2.708"/>
					<path style="fill:none;stroke:#263238;stroke-miterlimit:10;" d="M106.857,205.667c2.006-2.083,4.728-4.301,4.728-4.301
						s1.502,0.125,2.628,2.628c1.126,2.503,1.377,5.006,1.377,5.006"/>
					<path style="fill:none;stroke:#263238;stroke-miterlimit:10;" d="M104.952,210.877c0,0-0.575-1.725,0.623-3.665"/>
					<path style="fill:none;stroke:#263238;stroke-miterlimit:10;" d="M99.946,219.637c0,0-1.001-2.878,0-4.63
						c1.001-1.752,3.629-4.005,3.629-4.005s1.377,0.626,2.503,3.129c1.126,2.503,1.001,4.63,1.001,4.63"/>
					<path style="fill:none;stroke:#263238;stroke-miterlimit:10;" d="M104.201,200.74c0,0,0-2.628,1.752-4.255
						c1.752-1.627,3.254-2.378,3.254-2.378s1.001,2.378,0.375,4.505c-0.626,2.127-0.876,2.628-0.876,2.628"/>
					<path style="fill:none;stroke:#263238;stroke-miterlimit:10;" d="M110.333,192.981c0,0,0.751-0.876,3.129-2.253
						c2.378-1.376,4.13-1.877,4.13-1.877s0.626,2.253,0.751,3.379c0.125,1.126-0.375,2.128-0.375,2.128"/>
					<path style="fill:none;stroke:#263238;stroke-miterlimit:10;" d="M134.236,191.855c0,0-2.002-4.505-3.129-5.381
						c-1.126-0.876-5.506,1.627-7.133,5.381"/>
					<path style="fill:none;stroke:#263238;stroke-miterlimit:10;" d="M142.495,239.284c1.377-1.877,4.13-5.757,4.38-6.132
						c0.25-0.375,3.504,0.125,6.007,3.254c2.503,3.129,2.628,6.508,2.628,6.508"/>
					<path style="fill:none;stroke:#263238;stroke-miterlimit:10;" d="M141.118,244.415c0,0,0-2.133,0.731-3.942"/>
					<path style="fill:none;stroke:#263238;stroke-miterlimit:10;" d="M163.798,243.714c0.21,0.691,0.315,1.319,0.347,1.702"/>
					<path style="fill:none;stroke:#263238;stroke-miterlimit:10;" d="M154.384,249.797c0,0-0.125-7.384,4.13-9.261
						c2.377-1.049,3.817,0.129,4.646,1.634"/>
					<path style="fill:none;stroke:#263238;stroke-miterlimit:10;" d="M160.319,234.751c0.62-1.965,1.64-4.197,3.2-4.978
						c3.003-1.502,4.255,3.379,4.38,4.505"/>
					<path style="fill:none;stroke:#263238;stroke-miterlimit:10;" d="M159.515,238.158c0,0,0.142-0.975,0.479-2.271"/>
					<path style="fill:none;stroke:#263238;stroke-miterlimit:10;" d="M166.523,228.397c0,0-0.25-4.005,0.751-6.633
						c1.001-2.628,2.002-5.632,3.129-5.381"/>
					<path style="fill:none;stroke:#263238;stroke-miterlimit:10;" d="M132.016,241.772c0.467,1.799,0.467,2.894,0.467,2.894"/>
					<path style="fill:none;stroke:#263238;stroke-miterlimit:10;" d="M120.094,246.418c0,0,0.375-4.755,2.127-7.258
						c1.752-2.503,2.503-3.003,3.629-3.128c0.978-0.109,4.123,1.762,5.428,3.813"/>
					<path style="fill:none;stroke:#263238;stroke-miterlimit:10;" d="M130.857,252.55c0,0,1.377-6.507,5.632-8.009
						s8.009,3.004,8.009,5.381c0,2.378,0,3.003,0,3.003"/>
					<path style="fill:none;stroke:#263238;stroke-miterlimit:10;" d="M112.335,254.552c0,0-0.751-3.504,2.503-6.883
						c3.254-3.379,8.385,1.001,9.01,3.754"/>
					<path style="fill:none;stroke:#263238;stroke-miterlimit:10;" d="M114.025,244.102c-0.563-1.095-1.439-2.44-2.691-3.441
						c-2.503-2.002-4.255-1.502-6.382,1.251s-2.253,4.881-2.128,6.007"/>
					<path style="fill:none;stroke:#263238;stroke-miterlimit:10;" d="M114.838,246.042c0,0-0.15-0.507-0.48-1.245"/>
					<path style="fill:none;stroke:#263238;stroke-miterlimit:10;" d="M110.458,235.155c1.251-2.253,1.877-3.129,2.878-3.254
						c1.001-0.125,4.63-1.001,6.382,4.505"/>
					<path style="fill:none;stroke:#263238;stroke-miterlimit:10;" d="M109.081,238.534c0,0,0.073-0.66,0.669-1.98"/>
					<path style="fill:none;stroke:#263238;stroke-miterlimit:10;" d="M111.084,230.775c0,0-5.882-7.759-7.759-5.882
						c-1.877,1.877-2.878,5.256-3.004,7.634"/>
					<path style="fill:none;stroke:#263238;stroke-miterlimit:10;" d="M145.749,259.182c0,0,0-3.254,1.377-4.756
						c1.377-1.502,5.131-4.505,5.131-4.505s4.13,2.378,4.505,4.38c0.376,2.002,0.125,3.504,0.125,3.504"/>
					<path style="fill:none;stroke:#263238;stroke-miterlimit:10;" d="M122.992,260.584c-0.23,1.484-0.145,2.728-0.145,2.728"/>
					<path style="fill:none;stroke:#263238;stroke-miterlimit:10;" d="M135.988,263.938c0,0-0.125-3.129-1.752-5.757
						c-1.627-2.628-5.506-3.88-5.506-3.88s-3.129,0.876-4.63,3.128c-0.271,0.406-0.485,0.857-0.653,1.324"/>
					<path style="fill:none;stroke:#263238;stroke-miterlimit:10;" d="M117.216,261.685c0,0-2.127-4.13-3.754-5.006
						s-4.881-1.377-6.257-0.125"/>
					<path style="fill:none;stroke:#263238;stroke-miterlimit:10;" d="M116.59,265.94c0,0,0.501-1.627,1.877-2.503
						c1.377-0.876,7.759,1.377,9.136,2.878c1.377,1.502,1.502,2.628,1.502,2.628"/>
					<path style="fill:none;stroke:#263238;stroke-miterlimit:10;" d="M139.403,260.354c1.951-1.769,4.468-3.173,4.468-3.173
						s1.877,2.378,3.88,3.629c2.002,1.251,1.627,4.255,1.377,4.756"/>
					<path style="fill:none;stroke:#263238;stroke-miterlimit:10;" d="M138.115,268.068c0,0-1.877-2.378-0.751-5.131
						c0.178-0.435,0.462-0.876,0.815-1.311"/>
				</g>
			</g>
		</g>
		<path style="fill:#CCCCCC;stroke:#263238;stroke-miterlimit:10;" d="M118.935,173.414c0,0-10.858-12.668-17.192-15.383
			c-6.334-2.714-6.334-2.714-6.334-2.714s6.032,0.905,12.97,3.318c6.937,2.413,11.763,6.636,11.763,6.636s-1.207-3.62,0.302-8.445
			c1.508-4.826,3.318-8.747,3.318-8.747s3.016,6.334,4.223,8.747c1.207,2.413,2.413,5.731,2.413,5.731s1.207-3.016,3.016-8.144
			c1.81-5.128,4.223-7.239,4.223-7.239s-0.603,6.937,0,9.953c0.603,3.016,0.603,3.016,0.603,3.016s4.223-2.111,5.429-3.318
			c1.206-1.206,9.35-4.826,9.35-4.826s-1.508,4.524-2.111,6.334c-0.603,1.81-1.81,3.619-1.81,3.619s5.731-2.715,9.953-3.318
			c4.223-0.603,9.049,0.302,9.049,0.302s-12.366,4.223-17.192,12.97l-3.016,5.128l-6.636-4.826l-10.557,6.032l-3.318-4.223
			L118.935,173.414z"/>
		<path style="fill:#D6D6D6;stroke:#263238;stroke-miterlimit:10;" d="M121.305,175.633c0,0-3.244,0.492-5.305-3.631
			c-2.062-4.124-6.598-7.835-6.598-7.835s7.01,2.887,8.247,3.711c1.237,0.825,4.124,2.062,4.124,2.062l2.887-7.01l8.247,6.186
			l5.773-5.773l2.474,6.598l8.247-5.361l-0.825,4.536c0,0,3.711-1.65,4.949-2.062c1.237-0.412,7.01-1.237,7.01-1.237
			s-4.948,3.711-7.01,7.01c-2.062,3.299-1.654,5.809-1.654,5.809l2.066,4.913l-6.186-2.062l-6.598,7.01l-8.66-7.423l-10.309,5.773
			l2.062-6.598l-4.124,0.412L121.305,175.633z"/>
	</g>
	<g>
		<g>
			<g>
				<path style="fill:#FFFFFF;stroke:#263238;stroke-linecap:round;stroke-linejoin:round;stroke-miterlimit:10;" d="
					M192.755,242.295c0,0-9.956,13.297-29.279,17.81c-19.322,4.513-41.612-2.56-42.805,0.723
					c-1.193,3.283,6.94,14.054,31.111,19.119c24.172,5.066,40.652-7.143,48.14-16.467c7.488-9.325-0.582-18.151-2.024-22.647
					c-1.442-4.496,7.488-9.325,2.847-12.42c-4.642-3.096-5.352-5.02-7.779,0.249C190.54,233.931,192.755,242.295,192.755,242.295z"
					/>
				
					<path style="fill:#FFFFFF;stroke:#263238;stroke-width:0.75;stroke-linecap:round;stroke-linejoin:round;stroke-miterlimit:10;" d="
					M195.688,249.818c0,0-7.745,15.349-20.674,18.852"/>
				
					<path style="fill:#FFFFFF;stroke:#263238;stroke-width:0.75;stroke-linecap:round;stroke-linejoin:round;stroke-miterlimit:10;" d="
					M166.839,270.648c0,0-15.053,1.512-31.353-3.8"/>
			</g>
			<g>
				<path style="fill:#FFFFFF;stroke:#263238;stroke-linecap:round;stroke-linejoin:round;stroke-miterlimit:10;" d="
					M188.39,238.354c0,0-13.815,9.224-33.538,7.046c-19.723-2.178-38.386-16.268-40.603-13.569
					c-2.218,2.698,1.865,15.562,22.971,28.386c21.106,12.824,40.711,6.799,50.876,0.499c10.165-6.3,5.494-17.309,5.631-22.029
					c0.138-4.72,10.165-6.3,6.819-10.764c-3.346-4.464-3.376-6.515-7.418-2.355C189.087,229.729,188.39,238.354,188.39,238.354z"/>
				
					<path style="fill:#FFFFFF;stroke:#263238;stroke-width:0.75;stroke-linecap:round;stroke-linejoin:round;stroke-miterlimit:10;" d="
					M188.651,246.423c0,0-12.414,11.895-25.772,10.894"/>
				
					<path style="fill:#FFFFFF;stroke:#263238;stroke-width:0.75;stroke-linecap:round;stroke-linejoin:round;stroke-miterlimit:10;" d="
					M154.513,256.461c0,0-14.697-3.586-28.3-14.022"/>
			</g>
			<g>
				<path style="fill:#FFFFFF;stroke:#263238;stroke-linecap:round;stroke-linejoin:round;stroke-miterlimit:10;" d="
					M184.918,224.413c0,0-14.103,5.225-31.016-0.83c-16.913-6.055-30.395-22.38-32.914-20.469
					c-2.519,1.911-1.622,14.097,14.276,29.82c15.899,15.723,34.429,14.529,44.704,11.113c10.274-3.416,8.47-14.092,9.581-18.22
					c1.111-4.128,10.275-3.416,8.264-8.05c-2.01-4.634-1.606-6.446-6.039-3.63C187.341,216.963,184.918,224.413,184.918,224.413z"/>
				<path style="fill:#FFFFFF;stroke:#263238;stroke-linecap:round;stroke-linejoin:round;stroke-miterlimit:10;" d="
					M158.472,235.763c11.555,3.684,24.983-4.188,24.983-4.188"/>
				<path style="fill:#FFFFFF;stroke:#263238;stroke-linecap:round;stroke-linejoin:round;stroke-miterlimit:10;" d="
					M151.283,233.254c0,0-6.737-2.465-14.144-10.909"/>
			</g>
		</g>
		<g>
			<g>
				<path style="fill:#FFFFFF;stroke:#263238;stroke-linecap:round;stroke-linejoin:round;stroke-miterlimit:10;" d="
					M196.534,230.713c0,0-9.956,13.297-29.279,17.81c-19.323,4.513-41.612-2.56-42.805,0.723
					c-1.192,3.283,6.94,14.054,31.112,19.119c24.172,5.066,40.652-7.143,48.14-16.468c7.488-9.324-0.582-18.151-2.023-22.647
					c-1.442-4.496,7.488-9.325,2.846-12.42c-4.641-3.096-5.352-5.02-7.779,0.249C194.319,222.348,196.534,230.713,196.534,230.713z"
					/>
				
					<path style="fill:#FFFFFF;stroke:#263238;stroke-width:0.75;stroke-linecap:round;stroke-linejoin:round;stroke-miterlimit:10;" d="
					M199.466,238.235c0,0-7.745,15.349-20.674,18.853"/>
				
					<path style="fill:#FFFFFF;stroke:#263238;stroke-width:0.75;stroke-linecap:round;stroke-linejoin:round;stroke-miterlimit:10;" d="
					M170.618,259.066c0,0-15.053,1.512-31.353-3.8"/>
			</g>
			<g>
				<path style="fill:#FFFFFF;stroke:#263238;stroke-linecap:round;stroke-linejoin:round;stroke-miterlimit:10;" d="
					M192.169,226.771c0,0-13.815,9.224-33.538,7.046c-19.723-2.178-38.386-16.267-40.603-13.569
					c-2.217,2.698,1.865,15.562,22.971,28.386c21.107,12.824,40.711,6.799,50.876,0.499c10.165-6.3,5.494-17.309,5.632-22.028
					c0.137-4.72,10.165-6.3,6.819-10.764c-3.346-4.464-3.376-6.515-7.418-2.355C192.865,218.146,192.169,226.771,192.169,226.771z"
					/>
				
					<path style="fill:#FFFFFF;stroke:#263238;stroke-width:0.75;stroke-linecap:round;stroke-linejoin:round;stroke-miterlimit:10;" d="
					M192.429,234.84c0,0-12.413,11.895-25.771,10.894"/>
				
					<path style="fill:#FFFFFF;stroke:#263238;stroke-width:0.75;stroke-linecap:round;stroke-linejoin:round;stroke-miterlimit:10;" d="
					M158.292,244.878c0,0-14.697-3.586-28.3-14.022"/>
			</g>
			<g>
				<path style="fill:#FFFFFF;stroke:#263238;stroke-linecap:round;stroke-linejoin:round;stroke-miterlimit:10;" d="
					M188.697,212.83c0,0-14.103,5.225-31.016-0.83c-16.913-6.056-30.395-22.381-32.914-20.469
					c-2.519,1.911-1.623,14.097,14.276,29.82c15.899,15.723,34.429,14.529,44.704,11.113c10.275-3.416,8.47-14.092,9.581-18.22
					c1.111-4.128,10.275-3.416,8.264-8.05c-2.01-4.634-1.606-6.446-6.039-3.63C191.12,205.38,188.697,212.83,188.697,212.83z"/>
				<path style="fill:#FFFFFF;stroke:#263238;stroke-linecap:round;stroke-linejoin:round;stroke-miterlimit:10;" d="M162.25,224.18
					c11.555,3.684,24.983-4.188,24.983-4.188"/>
				<path style="fill:#FFFFFF;stroke:#263238;stroke-linecap:round;stroke-linejoin:round;stroke-miterlimit:10;" d="
					M155.062,221.671c0,0-6.737-2.465-14.144-10.909"/>
			</g>
		</g>
	</g>
</g>
<g id="Shopping_Cart">
	<g>
		<g>
			<g>
				<path style="fill:#92E3A9;stroke:#263238;stroke-miterlimit:10;" d="M99.975,278.138c-0.007,0-0.014,0-0.022,0
					c-0.643-0.011-1.155-0.542-1.144-1.185l2.214-123.943c0.011-0.643,0.538-1.132,1.186-1.144c0.643,0.012,1.155,0.542,1.144,1.186
					l-2.214,123.942C101.127,277.63,100.608,278.138,99.975,278.138z"/>
			</g>
			<g>
				<path style="fill:#92E3A9;stroke:#263238;stroke-miterlimit:10;" d="M111.7,279.297c-0.015,0-0.032,0-0.048-0.001
					c-0.643-0.026-1.142-0.568-1.116-1.21l5.112-126.552c0.026-0.642,0.555-1.127,1.211-1.116c0.643,0.026,1.142,0.568,1.116,1.211
					l-5.111,126.551C112.838,278.806,112.321,279.297,111.7,279.297z"/>
			</g>
			<g>
				<path style="fill:#92E3A9;stroke:#263238;stroke-miterlimit:10;" d="M123.425,280.456c-0.024,0-0.049-0.001-0.073-0.002
					c-0.642-0.04-1.13-0.592-1.09-1.234l8.01-129.16c0.04-0.641,0.602-1.134,1.235-1.09c0.642,0.04,1.13,0.593,1.09,1.235
					l-8.01,129.158C124.548,279.981,124.035,280.456,123.425,280.456z"/>
			</g>
			<g>
				<path style="fill:#92E3A9;stroke:#263238;stroke-miterlimit:10;" d="M135.15,281.616c-0.032,0-0.064-0.001-0.097-0.003
					c-0.641-0.053-1.117-0.616-1.064-1.257l10.908-131.769c0.054-0.641,0.598-1.125,1.257-1.064
					c0.641,0.053,1.117,0.616,1.064,1.257L136.31,280.547C136.259,281.156,135.75,281.616,135.15,281.616z"/>
			</g>
			<g>
				<path style="fill:#92E3A9;stroke:#263238;stroke-miterlimit:10;" d="M146.876,282.775c-0.04,0-0.08-0.002-0.12-0.006
					c-0.64-0.066-1.105-0.638-1.039-1.278l13.806-134.376c0.066-0.638,0.639-1.106,1.277-1.039c0.64,0.065,1.105,0.637,1.039,1.277
					L148.033,281.73C147.971,282.329,147.465,282.775,146.876,282.775z"/>
			</g>
			<g>
				<path style="fill:#92E3A9;stroke:#263238;stroke-miterlimit:10;" d="M158.601,283.934c-0.047,0-0.095-0.002-0.143-0.009
					c-0.639-0.077-1.093-0.658-1.015-1.296l16.705-136.984c0.078-0.638,0.663-1.09,1.297-1.015c0.639,0.078,1.093,0.659,1.015,1.297
					l-16.705,136.984C159.683,283.501,159.181,283.934,158.601,283.934z"/>
			</g>
			<g>
				<path style="fill:#92E3A9;stroke:#263238;stroke-miterlimit:10;" d="M170.326,285.094c-0.054,0-0.109-0.003-0.164-0.011
					c-0.637-0.09-1.081-0.678-0.991-1.315l19.603-139.594c0.09-0.637,0.677-1.085,1.315-0.991c0.637,0.089,1.08,0.678,0.991,1.315
					l-19.603,139.593C171.395,284.673,170.897,285.094,170.326,285.094z"/>
			</g>
			<g>
				<path style="fill:#92E3A9;stroke:#263238;stroke-miterlimit:10;" d="M182.051,286.253c-0.061,0-0.122-0.004-0.184-0.015
					c-0.635-0.1-1.069-0.696-0.968-1.332L203.4,142.705c0.101-0.636,0.703-1.063,1.332-0.968c0.635,0.101,1.069,0.697,0.968,1.332
					L183.2,285.27C183.109,285.844,182.613,286.253,182.051,286.253z"/>
			</g>
			<g>
				<path style="fill:#92E3A9;stroke:#263238;stroke-miterlimit:10;" d="M193.775,287.413c-0.067,0-0.134-0.006-0.202-0.017
					c-0.633-0.112-1.057-0.715-0.946-1.349l25.4-144.811c0.11-0.633,0.708-1.057,1.348-0.946c0.633,0.111,1.057,0.715,0.946,1.348
					l-25.4,144.811C194.822,287.015,194.33,287.413,193.775,287.413z"/>
			</g>
			<g>
				<path style="fill:#92E3A9;stroke:#263238;stroke-miterlimit:10;" d="M205.5,288.572c-0.073,0-0.147-0.007-0.221-0.02
					c-0.632-0.122-1.046-0.732-0.924-1.364l28.299-147.419c0.121-0.631,0.734-1.045,1.363-0.924
					c0.632,0.121,1.046,0.731,0.924,1.363l-28.298,147.419C206.536,288.184,206.048,288.572,205.5,288.572z"/>
			</g>
			<g>
				<path style="fill:#92E3A9;stroke:#263238;stroke-miterlimit:10;" d="M217.225,289.731c-0.079,0-0.158-0.008-0.238-0.024
					c-0.629-0.132-1.034-0.748-0.903-1.377l31.197-150.028c0.131-0.63,0.748-1.035,1.377-0.903c0.63,0.131,1.035,0.748,0.904,1.377
					l-31.197,150.026C218.25,289.353,217.765,289.731,217.225,289.731z"/>
			</g>
			<g>
				<path style="fill:#92E3A9;stroke:#263238;stroke-miterlimit:10;" d="M228.95,290.891c-0.084,0-0.169-0.009-0.255-0.029
					c-0.628-0.14-1.023-0.762-0.883-1.39l34.095-152.636c0.14-0.628,0.768-1.019,1.39-0.883c0.628,0.14,1.024,0.763,0.883,1.39
					L230.086,289.98C229.965,290.522,229.484,290.891,228.95,290.891z"/>
			</g>
			<g>
				<path style="fill:#92E3A9;stroke:#263238;stroke-miterlimit:10;" d="M240.675,292.05c-0.089,0-0.18-0.01-0.271-0.032
					c-0.626-0.149-1.012-0.777-0.863-1.402l36.993-155.245c0.149-0.625,0.788-1.009,1.402-0.863
					c0.627,0.149,1.012,0.777,0.863,1.403l-36.993,155.244C241.679,291.69,241.202,292.05,240.675,292.05z"/>
			</g>
			<g>
				<path style="fill:#92E3A9;stroke:#263238;stroke-miterlimit:10;" d="M252.4,293.209c-0.094,0-0.191-0.011-0.287-0.035
					c-0.623-0.158-1.001-0.792-0.844-1.415l39.891-157.852c0.157-0.624,0.79-1,1.415-0.844c0.623,0.158,1.001,0.791,0.844,1.415
					l-39.891,157.852C253.395,292.857,252.921,293.209,252.4,293.209z"/>
			</g>
			<g>
				<path style="fill:#92E3A9;stroke:#263238;stroke-miterlimit:10;" d="M264.125,294.369c-0.1,0-0.2-0.013-0.301-0.04
					c-0.621-0.165-0.991-0.803-0.825-1.425l42.789-160.462c0.166-0.622,0.805-0.986,1.425-0.825
					c0.621,0.166,0.991,0.804,0.824,1.426l-42.789,160.462C265.11,294.025,264.639,294.369,264.125,294.369z"/>
			</g>
			<g>
				<path style="fill:#92E3A9;stroke:#263238;stroke-miterlimit:10;" d="M275.85,295.528c-0.105,0-0.21-0.014-0.315-0.043
					c-0.62-0.174-0.982-0.817-0.807-1.435l45.688-163.07c0.175-0.62,0.825-0.978,1.435-0.807c0.62,0.173,0.982,0.816,0.807,1.436
					L276.97,294.677C276.826,295.191,276.358,295.528,275.85,295.528z"/>
			</g>
			<g>
				<path style="fill:#92E3A9;stroke:#263238;stroke-miterlimit:10;" d="M287.574,296.688c-0.108,0-0.218-0.015-0.327-0.047
					c-0.618-0.182-0.971-0.828-0.79-1.445l48.586-165.678c0.181-0.616,0.828-0.972,1.445-0.79c0.618,0.181,0.971,0.828,0.79,1.445
					l-48.586,165.678C288.543,296.359,288.078,296.688,287.574,296.688z"/>
			</g>
			<g>
				<path style="fill:#92E3A9;stroke:#263238;stroke-miterlimit:10;" d="M299.299,297.846c-0.113,0-0.227-0.016-0.341-0.051
					c-0.614-0.188-0.961-0.839-0.772-1.455l51.485-168.286c0.189-0.615,0.837-0.962,1.455-0.773
					c0.614,0.188,0.961,0.839,0.772,1.454l-51.485,168.287C300.259,297.525,299.799,297.846,299.299,297.846z"/>
			</g>
			<g>
				<path style="fill:#92E3A9;stroke:#263238;stroke-miterlimit:10;" d="M311.024,299.005c-0.117,0-0.235-0.017-0.354-0.055
					c-0.612-0.196-0.951-0.851-0.756-1.464l54.384-170.894c0.196-0.613,0.848-0.949,1.464-0.757c0.612,0.195,0.951,0.85,0.756,1.463
					l-54.384,170.895C311.975,298.689,311.517,299.005,311.024,299.005z"/>
			</g>
			<g>
				<path style="fill:#92E3A9;stroke:#263238;stroke-miterlimit:10;" d="M322.749,300.165c-0.121,0-0.243-0.018-0.365-0.059
					c-0.611-0.201-0.943-0.86-0.74-1.47l57.282-173.504c0.201-0.611,0.854-0.943,1.471-0.741c0.611,0.202,0.943,0.86,0.74,1.471
					l-57.281,173.504C323.693,299.855,323.238,300.165,322.749,300.165z"/>
			</g>
			<g>
				<path style="fill:#92E3A9;stroke:#263238;stroke-miterlimit:10;" d="M334.474,301.324c-0.125,0-0.251-0.021-0.376-0.063
					c-0.608-0.208-0.934-0.87-0.726-1.479l60.179-176.112c0.207-0.609,0.869-0.933,1.478-0.726c0.608,0.208,0.934,0.87,0.726,1.479
					l-60.179,176.112C335.411,301.021,334.959,301.324,334.474,301.324z"/>
			</g>
			<g>
				<path style="fill:#92E3A9;stroke:#263238;stroke-miterlimit:10;" d="M346.199,302.484c-0.128,0-0.259-0.022-0.388-0.066
					c-0.606-0.215-0.925-0.88-0.711-1.487l63.078-178.721c0.215-0.606,0.879-0.925,1.486-0.71c0.606,0.214,0.925,0.879,0.711,1.486
					l-63.078,178.721C347.128,302.185,346.678,302.484,346.199,302.484z"/>
			</g>
		</g>
		<g>
			<rect x="365.89" y="398.848" style="fill:#92E3A9;stroke:#263238;stroke-miterlimit:10;" width="23.01" height="4.155"/>
			<g>
				
					<ellipse transform="matrix(0.9727 -0.2321 0.2321 0.9727 -89.178 102.4286)" style="fill:#263238;stroke:#263238;stroke-linecap:round;stroke-linejoin:round;stroke-miterlimit:10;" cx="390.762" cy="430.246" rx="23.308" ry="23.308"/>
				
					<ellipse transform="matrix(0.9729 -0.2312 0.2312 0.9729 -88.8746 101.9849)" style="fill:#FFFFFF;stroke:#263238;stroke-linecap:round;stroke-linejoin:round;stroke-miterlimit:10;" cx="390.762" cy="430.246" rx="14.291" ry="14.291"/>
			</g>
			<path style="fill:#92E3A9;stroke:#263238;stroke-miterlimit:10;" d="M391.873,403.048H365.89v6.666c0,0,12.783,7.67,15.34,14.381
				c2.557,6.711,3.835,13.422,10.227,12.783c6.391-0.639,5.433-4.794,4.154-10.546C394.479,421.239,392.347,408.102,391.873,403.048
				z"/>
			<circle style="fill:#92E3A9;stroke:#263238;stroke-miterlimit:10;" cx="390.762" cy="430.246" r="3.132"/>
		</g>
		<g>
			<rect x="84.196" y="398.848" style="fill:#92E3A9;stroke:#263238;stroke-miterlimit:10;" width="23.01" height="4.155"/>
			<g>
				
					<ellipse transform="matrix(0.7414 -0.671 0.671 0.7414 -260.6565 184.0655)" style="fill:#263238;stroke:#263238;stroke-linecap:round;stroke-linejoin:round;stroke-miterlimit:10;" cx="108.505" cy="430.246" rx="23.308" ry="23.308"/>
				
					<ellipse transform="matrix(0.7391 -0.6735 0.6735 0.7391 -261.4878 185.3165)" style="fill:#FFFFFF;stroke:#263238;stroke-linecap:round;stroke-linejoin:round;stroke-miterlimit:10;" cx="108.505" cy="430.246" rx="14.291" ry="14.291"/>
			</g>
			<path style="fill:#92E3A9;stroke:#263238;stroke-miterlimit:10;" d="M110.178,403.048H84.196v6.666c0,0,12.783,7.67,15.34,14.381
				c2.557,6.711,3.835,13.422,10.226,12.783c6.392-0.639,5.433-4.794,4.155-10.546C112.785,421.239,110.652,408.102,110.178,403.048
				z"/>
			<circle style="fill:#92E3A9;stroke:#263238;stroke-miterlimit:10;" cx="109.067" cy="430.246" r="3.132"/>
		</g>
		<g>
			<path style="fill:#92E3A9;stroke:#263238;stroke-miterlimit:10;" d="M383.733,400.705c-0.222,0-0.442-0.003-0.665-0.01
				l-319.829-1.844c-2.251-0.014-4.066-1.848-4.053-4.1c0.013-2.243,1.836-4.052,4.076-4.052c0.008,0,0.016,0,0.024,0l319.935,1.846
				c4.243,0.138,8.301-1.715,10.92-4.938l2.517-3.098c3.655-4.498,4.008-10.797,0.878-15.675l-31.065-48.427
				c-1.745-2.718-4.589-4.461-7.804-4.78l-122.984-12.181c-2.24-0.223-3.876-2.219-3.654-4.458c0.222-2.241,2.22-3.863,4.458-3.655
				l122.984,12.182c5.71,0.568,10.762,3.661,13.861,8.49l31.066,48.428c5.034,7.847,4.466,17.982-1.413,25.217l-2.517,3.098
				C396.394,397.761,390.18,400.705,383.733,400.705z"/>
		</g>
		<g>
			<path style="fill:#92E3A9;stroke:#263238;stroke-miterlimit:10;" d="M369.772,306.655c-0.057,0-0.115-0.002-0.173-0.008
				L89.35,279.052c-0.901-0.089-1.584-0.851-1.576-1.756L89,152.195c0.009-0.894,0.691-1.637,1.58-1.722l345.867-33.115
				c0.604-0.058,1.178,0.195,1.546,0.667c0.367,0.473,0.466,1.1,0.264,1.663l-66.843,185.811
				C371.163,306.198,370.502,306.655,369.772,306.655z M91.283,275.731l277.305,27.305l65.449-181.937L92.479,153.801
				L91.283,275.731z"/>
		</g>
		<g>
			<path style="fill:#92E3A9;stroke:#263238;stroke-miterlimit:10;" d="M85.84,190.14c-0.932,0-1.706-0.736-1.744-1.675
				c-0.04-0.964,0.71-1.778,1.674-1.817l335.609-13.783c0.935-0.055,1.778,0.71,1.817,1.674c0.04,0.964-0.71,1.778-1.674,1.817
				L85.913,190.138C85.889,190.139,85.864,190.14,85.84,190.14z"/>
		</g>
		<g>
			<path style="fill:#92E3A9;stroke:#263238;stroke-miterlimit:10;" d="M404.725,226.321c-0.005,0-0.009,0-0.014,0l-320.11-2.453
				c-0.964-0.007-1.741-0.796-1.733-1.76c0.007-0.96,0.788-1.733,1.747-1.733c0.005,0,0.008,0,0.014,0l320.11,2.453
				c0.964,0.007,1.74,0.796,1.733,1.76C406.464,225.548,405.684,226.321,404.725,226.321z"/>
		</g>
		<g>
			<path style="fill:#92E3A9;stroke:#263238;stroke-miterlimit:10;" d="M386.593,275.4c-0.036,0-0.073-0.001-0.109-0.003
				L84.373,256.585c-0.963-0.06-1.695-0.889-1.635-1.851c0.06-0.963,0.88-1.7,1.852-1.635l302.11,18.812
				c0.963,0.06,1.696,0.889,1.635,1.852C388.277,274.688,387.508,275.4,386.593,275.4z"/>
		</g>
		<g>
			<path style="fill:#92E3A9;stroke:#263238;stroke-miterlimit:10;" d="M84.613,155.799c-0.887,0-1.646-0.673-1.736-1.573
				c-0.096-0.96,0.605-1.816,1.565-1.912l356.906-35.568c0.951-0.085,1.815,0.606,1.911,1.565c0.097,0.96-0.605,1.816-1.565,1.912
				L84.788,155.79C84.729,155.796,84.671,155.799,84.613,155.799z"/>
		</g>
		<path style="fill:#263238;stroke:#263238;stroke-linecap:round;stroke-linejoin:round;stroke-miterlimit:10;" d="M101.407,162.386
			H83.551c-1.335,0-2.417-1.082-2.417-2.417v-12.337c0-1.335,1.082-2.417,2.417-2.417h17.856c1.335,0,2.417,1.082,2.417,2.417
			v12.337C103.824,161.304,102.742,162.386,101.407,162.386z"/>
		<g>
			<g>
				<path style="fill:#92E3A9;stroke:#263238;stroke-miterlimit:10;" d="M273.95,311.091c-0.574,0-1.154-0.169-1.662-0.522
					c-1.319-0.919-1.645-2.734-0.725-4.053c1.489-2.138,149.177-213.989,155.736-218.361c6.332-4.221,35.54-3.762,41.332-3.629
					c1.607,0.037,2.88,1.371,2.842,2.979c-0.036,1.607-1.354,2.875-2.977,2.843c-15.992-0.371-34.402,0.497-37.87,2.59
					c-6.77,6.417-111.542,155.53-154.284,216.905C275.776,310.656,274.87,311.091,273.95,311.091z"/>
			</g>
			<g>
				<path style="fill:#92E3A9;stroke:#263238;stroke-miterlimit:10;" d="M353.991,320.283c-0.333,0-0.671-0.058-1.001-0.178
					c-1.51-0.553-2.286-2.225-1.733-3.735c5.432-14.838,16.433-45.239,28.08-77.425c26.475-73.163,45.313-125.148,46.581-127.685
					c0.339-0.679,0.687-1.434,1.055-2.234c2.36-5.121,5.591-12.135,12.797-14.537c7.324-2.441,32.997-2.151,35.901-2.112
					c1.608,0.023,2.893,1.345,2.871,2.952c-0.023,1.609-1.397,2.911-2.952,2.871c-7.613-0.107-28.565,0.01-33.977,1.813
					c-4.813,1.605-7.329,7.064-9.35,11.45c-0.396,0.86-0.771,1.671-1.135,2.401c-1.45,3.079-26.326,71.825-46.315,127.063
					c-11.648,32.19-22.651,62.597-28.086,77.445C356.293,319.55,355.179,320.283,353.991,320.283z"/>
			</g>
			<path style="fill:#263238;stroke:#263238;stroke-linecap:round;stroke-linejoin:round;stroke-miterlimit:10;" d="
				M448.009,102.679h23.303c4.854,0,8.79-3.935,8.79-8.79v-2.893c0-4.854-3.935-8.79-8.79-8.79h-23.303V102.679z"/>
		</g>
	</g>
</g>
<g id="Floor">
	<g>
		<line style="fill:none;stroke:#263238;stroke-miterlimit:10;" x1="464.978" y1="453.554" x2="482.359" y2="453.554"/>
		<line style="fill:none;stroke:#263238;stroke-miterlimit:10;" x1="78.299" y1="453.554" x2="456.174" y2="453.554"/>
		<line style="fill:none;stroke:#263238;stroke-miterlimit:10;" x1="20.429" y1="453.554" x2="67.464" y2="453.554"/>
	</g>
</g>
</svg>
