<?xml version="1.0" encoding="utf-8"?>
<!-- Generator: Adobe Illustrator 27.5.0, SVG Export Plug-In . SVG Version: 6.00 Build 0)  -->
<svg version="1.1" xmlns="http://www.w3.org/2000/svg" xmlns:xlink="http://www.w3.org/1999/xlink" x="0px" y="0px"
	 viewBox="0 0 750 500" style="enable-background:new 0 0 750 500;" xml:space="preserve">
<g id="BACKGROUND">
	<rect style="fill:#FFFFFF;" width="750" height="500"/>
	<g>
		<g>
			<path style="fill:#E5F7F9;" d="M635.842,265.557c4.549,2.921,9.718,5.896,15.033,4.906c4.741-0.883,8.483-4.948,9.905-9.556
				c1.421-4.608,0.807-9.641-0.719-14.216c-3.351-10.044-11.192-18.494-20.957-22.587c-9.764-4.092-21.286-3.756-30.796,0.896
				C581.222,238.253,624.034,257.975,635.842,265.557z"/>
			<g>
				<path style="fill:#E5F7F9;" d="M264.376,288.301c31.762,21.846,64.606,44.435,100.876,58.686
					c49.418,19.419,107.681,24.534,173.171,15.202c36.713-5.231,72.878-14.489,108.373-25.083c0.07-8.543-1.055-17.095-3.445-25.088
					c-26.343,8.655-54.074,13.049-81.797,13.05c-28.891,0.001-57.766-4.764-85.077-14.438
					c-40.724-14.424-77.282-39.031-112.637-62.829c-12.797-8.614-26.03-17.521-39.259-25.808
					c-44.599-27.937-84.62-43.831-121.164-48.024c-4.893,9.38-10.429,18.118-17.587,25.064
					c-12.027,11.669-27.515,17.215-42.511,23.717c36.471,10.773,70.001,31.055,99.039,50.533
					C249.723,278.224,257.173,283.347,264.376,288.301z"/>
				<path style="fill:#E5F7F9;" d="M325.642,220.298c13.257,8.305,26.504,17.221,39.314,25.844
					c35.251,23.728,71.703,48.264,112.188,62.603c53.112,18.813,112.225,18.897,165.602,1.35
					c-2.856-8.695-7.243-16.656-13.266-23.116c-14.336-15.377-36.015-20.957-48.343-38.37
					c-10.836-15.304-12.134-36.564-21.099-53.31c-11.196-20.913-33.158-32.134-54.803-35.181
					c-21.645-3.047-43.517,0.826-65.209,3.427c-21.691,2.6-44.185,3.834-64.789-4.176c-22.086-8.586-39.834-26.901-59.598-40.864
					c-19.763-13.963-44.906-23.728-66.269-13.103c-23.31,11.593-32.025,41.202-44.97,66.667
					C241.041,176.431,281.095,192.394,325.642,220.298z"/>
				<path style="fill:#E5F7F9;" d="M538.705,364.17c-21.277,3.031-41.8,4.544-61.511,4.544c-41.28,0-79.006-6.636-112.673-19.865
					c-36.483-14.336-69.423-36.99-101.279-58.899c-7.199-4.951-14.643-10.07-21.999-15.006
					c-29.513-19.796-63.68-40.419-100.791-50.932c-8.931,3.983-17.596,8.469-25.143,14.984
					c-24.741,21.355-32.132,61.581-23.314,95.086c7.927,30.12,26.792,55.185,48.918,74.827h477.068
					c12.61-15.794,22.942-34.111,27.06-54.661c0.984-4.913,1.556-9.967,1.714-15.041
					C611.382,349.747,575.331,358.951,538.705,364.17z"/>
			</g>
		</g>
		<g>
			<circle style="fill:#FFFFFF;" cx="571.699" cy="291.342" r="3.625"/>
			<circle style="fill:#FFFFFF;" cx="587.949" cy="291.342" r="3.625"/>
			<circle style="fill:#FFFFFF;" cx="604.199" cy="291.342" r="3.625"/>
		</g>
	</g>
	<g>
		<g>
			<rect x="100" y="408.625" style="fill:#2A72BA;" width="550" height="1"/>
		</g>
	</g>
</g>
<g id="OBJECTS">
	<g>
		<g>
			<g>
				<path style="fill:#B4EFFF;" d="M527.202,273.142c0,0-3.607-19.578,8.013-37.228c11.621-17.65,32.304-31.702,34.466-28.547
					S543.589,268.868,527.202,273.142z"/>
				<path style="fill:#B4EFFF;" d="M479.88,321.663c0,0,14.865-7.252,31.582-1.885s32.574,18.787,30.531,21.221
					C539.95,343.431,486.954,333.826,479.88,321.663z"/>
				<path style="fill:#B4EFFF;" d="M516.257,289.399c0,0,7.679-14.649,2.798-31.514c-4.88-16.865-17.837-33.104-20.329-31.132
					C496.235,228.725,504.304,281.976,516.257,289.399z"/>
				<path style="fill:#B4EFFF;" d="M516.051,289.784c0,0,14.4,6.393,30.129,0.71c15.729-5.682,21.738-16.496,19.71-18.742
					C563.862,269.506,522.368,277.962,516.051,289.784z"/>
				<path style="fill:#B4EFFF;" d="M499.634,307.964c0,0-12.558-9.514-15.189-26.03c-2.631-16.516,3.929-27.004,6.876-26.315
					C494.269,256.309,506.928,296.719,499.634,307.964z"/>
				<path style="fill:#B4EFFF;" d="M480.854,322.203c0,0-12.195-9.974-14.21-26.577c-2.015-16.602,4.931-26.84,7.85-26.041
					C477.413,270.384,488.56,311.238,480.854,322.203z"/>
				<path style="fill:#B4EFFF;" d="M461.412,332.82c0,0-11.866-10.364-13.342-27.023c-1.476-16.659,5.797-26.666,8.689-25.773
					C459.651,280.917,469.47,322.109,461.412,332.82z"/>
				<path style="fill:#B4EFFF;" d="M498.906,307.521c0,0,11.691,10.561,28.407,10.063s25.796-8.901,24.569-11.668
					C550.654,303.15,508.591,298.257,498.906,307.521z"/>
				<path style="fill:#B4EFFF;" d="M460.305,332.476c0,0,7.553,13.826,23.499,18.869c15.946,5.043,27.289,0.105,27.042-2.911
					C510.6,345.417,472.504,326.924,460.305,332.476z"/>
			</g>
			<path style="fill:#7EC5D9;" d="M542.701,246.914l24.204-36.086c0.154-0.229,0.093-0.54-0.137-0.693
				c-0.226-0.153-0.538-0.094-0.693,0.137l-24.204,36.086c-3.244,4.836-6.307,10.239-9.104,16.058
				c-4.398,9.148-9.771,17.744-15.943,25.68c-3.326-9.128-5.416-18.808-7.43-28.181c-2.133-9.923-4.338-20.184-8.023-29.824
				c-0.099-0.258-0.39-0.386-0.646-0.288c-0.258,0.099-0.387,0.387-0.288,0.646c3.658,9.567,5.854,19.79,7.979,29.676
				c2.064,9.61,4.201,19.545,7.679,28.911c-4.929,6.23-10.359,12.039-16.217,17.367c-7.338-15.204-10.498-32.121-9.129-48.952
				c0.022-0.275-0.183-0.517-0.457-0.539c-0.294-0.021-0.518,0.183-0.539,0.457c-1.391,17.108,1.843,34.305,9.351,49.738
				c-5.473,4.907-11.314,9.39-17.455,13.413c-2.782-5.105-4.059-10.888-5.284-16.49c-2.181-9.973-4.652-21.275-2.339-31.951
				c0.059-0.27-0.112-0.535-0.383-0.594c-0.273-0.06-0.535,0.113-0.594,0.383c-2.36,10.888,0.136,22.304,2.339,32.375
				c1.246,5.699,2.543,11.584,5.422,16.831c-6.055,3.907-12.402,7.357-18.98,10.315c-5.37-15.356-7.446-32.005-5.992-48.205
				c0.024-0.275-0.179-0.519-0.453-0.543c-0.273-0.018-0.518,0.178-0.543,0.453c-1.47,16.369,0.633,33.192,6.07,48.702
				c-7.787,3.436-15.889,6.188-24.223,8.156c-0.268,0.064-0.435,0.332-0.371,0.602c0.054,0.229,0.26,0.385,0.486,0.385
				c0.038,0,0.076-0.004,0.115-0.014c8.284-1.956,16.341-4.681,24.09-8.079c5.861,4.45,12.972,7.895,21.741,10.522
				c7.807,2.34,15.969,3.743,23.862,5.1c0.029,0.005,0.058,0.007,0.086,0.007c0.238,0,0.45-0.172,0.492-0.415
				c0.046-0.272-0.137-0.531-0.408-0.578c-7.864-1.351-15.996-2.748-23.745-5.07c-8.432-2.527-15.294-5.819-20.972-10.034
				c0,0,0,0,0,0c6.67-2.989,13.105-6.479,19.242-10.436c5.648,2.815,12.057,3.544,18.257,4.247l1.024,0.116
				c6.505,0.743,13.43,1.697,19.992,3.623c7.166,2.103,13.183,5.174,17.882,9.131c0.094,0.079,0.208,0.117,0.322,0.117
				c0.143,0,0.283-0.061,0.383-0.178c0.178-0.212,0.15-0.527-0.061-0.705c-4.807-4.046-10.945-7.184-18.245-9.324
				c-6.635-1.948-13.61-2.909-20.16-3.658l-1.024-0.116c-5.916-0.67-12.018-1.381-17.383-3.904
				c6.318-4.147,12.321-8.776,17.933-13.851c0.01,0.005,0.017,0.013,0.028,0.017c8.468,2.996,17.415,4.498,26.364,4.498
				c8.035,0,16.072-1.211,23.762-3.64c0.264-0.083,0.409-0.364,0.326-0.627c-0.083-0.264-0.362-0.408-0.627-0.326
				c-15.892,5.018-33.276,4.764-49.02-0.693c5.742-5.274,11.074-11.006,15.919-17.145c16.462-1.535,32.574-6.979,46.594-15.744
				c0.234-0.147,0.306-0.455,0.159-0.689c-0.146-0.235-0.456-0.306-0.688-0.159c-13.621,8.514-29.234,13.856-45.214,15.493
				c6.123-7.913,11.458-16.472,15.835-25.575C536.445,257.072,539.484,251.711,542.701,246.914z"/>
		</g>
		<g>
			<g>
				<g>
					<path style="fill:#B4EFFF;" d="M147.524,288.677c0,0-19.084-5.668-29.539-24.032s-13.594-43.171-9.802-43.666
						C111.975,220.483,151.15,272.134,147.524,288.677z"/>
					<path style="fill:#B4EFFF;" d="M166.32,312.023c0,0-18.246,7.962-38.075,0.657c-19.829-7.306-32.402-21.944-29.821-24.766
						C101.006,285.092,158.434,297.036,166.32,312.023z"/>
					<path style="fill:#B4EFFF;" d="M166.8,312.293c0,0,10.341-17.011,5.764-37.642c-4.576-20.631-17.393-35.055-20.536-32.877
						C148.885,243.953,153.008,302.465,166.8,312.293z"/>
					<path style="fill:#B4EFFF;" d="M182.719,329.907c0,0,12.555-15.449,10.823-36.51s-12.471-37.093-15.88-35.361
						C174.252,259.767,170.39,318.297,182.719,329.907z"/>
					<path style="fill:#B4EFFF;" d="M209.312,349.923c0,0,12.555-15.449,10.824-36.51c-1.732-21.061-12.471-37.093-15.88-35.361
						C200.845,279.783,196.982,338.313,209.312,349.923z"/>
					<path style="fill:#B4EFFF;" d="M183.096,329.562c0,0-14.253,13.196-33.85,12.436c-19.597-0.76-34.598-10.709-33.018-14.18
						C117.808,324.348,172.193,317.829,183.096,329.562z"/>
					<path style="fill:#B4EFFF;" d="M210.289,349.496c0,0-11.219,15.856-30.55,19.162c-19.331,3.306-36.063-3.329-35.235-7.052
						C145.332,357.883,197.196,340.268,210.289,349.496z"/>
				</g>
				<path style="fill:#7EC5D9;" d="M275.927,365.226c-8.257,0.838-16.735,0.557-25.197-0.836
					c-14.095-2.32-28.316-7.849-42.042-16.243c0.006-0.021,0.023-0.036,0.026-0.058c2.919-22.05,2.295-44.309-1.855-66.162
					c-0.051-0.271-0.313-0.449-0.585-0.398c-0.276,0.052-0.449,0.313-0.398,0.585c4.105,21.62,4.74,43.641,1.893,65.458
					c-7.568-4.707-14.983-10.268-22.135-16.671c-1.152-1.031-2.289-2.079-3.413-3.136c5.254-21.474,4.548-43.96-2.062-65.065
					c-0.083-0.263-0.363-0.41-0.627-0.328c-0.264,0.076-0.41,0.363-0.328,0.627c6.498,20.745,7.236,42.835,2.175,63.96
					c-5.929-5.642-11.483-11.614-16.674-17.686c2.608-8.643,2.36-18.876-0.761-31.278c-1.13-4.485-2.528-8.971-3.88-13.309
					c-1.727-5.54-3.513-11.269-4.745-17.026c-0.058-0.27-0.323-0.442-0.594-0.384c-0.275,0.061-0.442,0.324-0.384,0.594
					c1.242,5.802,3.034,11.553,4.768,17.114c1.349,4.325,2.743,8.798,3.865,13.256c3.001,11.921,3.308,21.78,0.952,30.115
					c-8.154-9.616-15.423-19.435-21.89-28.5c-2.621-3.674-5.099-7.551-7.364-11.523l-24.66-43.233
					c-0.136-0.24-0.443-0.328-0.682-0.186c-0.24,0.137-0.323,0.442-0.186,0.682l24.66,43.233c2.282,4.001,4.778,7.906,7.418,11.607
					c6.453,9.047,13.705,18.843,21.839,28.446c-21.391-3.084-42.382-8.758-62.403-16.9c-0.256-0.103-0.548,0.018-0.651,0.275
					c-0.104,0.256,0.019,0.547,0.275,0.651c20.425,8.307,41.854,14.069,63.691,17.127c0.022,0.003,0.042-0.006,0.064-0.006
					c5.31,6.204,10.995,12.307,17.077,18.061c-2.942,2.15-6.209,3.736-9.725,4.718c-5.481,1.524-11.423,1.464-16.561,1.289
					c-12.327-0.422-24.733-1.707-36.873-3.822c-0.273-0.05-0.532,0.134-0.579,0.407c-0.047,0.272,0.135,0.531,0.407,0.578
					c12.186,2.123,24.639,3.415,37.012,3.837c5.213,0.178,11.246,0.238,16.864-1.325c0.567-0.157,1.127-0.33,1.681-0.518
					c3.054-1.036,5.908-2.537,8.511-4.463c1.028,0.963,2.066,1.916,3.117,2.857c7.107,6.363,14.476,11.901,21.997,16.602
					c-6.87,4.072-15.054,7.226-24.362,9.365c-9.248,2.123-18.645,3.074-26.619,3.723c-3.815,0.312-7.017,0.519-10.24,0.518
					c-0.274,0.003-0.5,0.224-0.5,0.5c0,0.276,0.224,0.5,0.5,0.5c3.256,0.001,6.481-0.208,10.321-0.521
					c8.008-0.653,17.451-1.608,26.76-3.746c3.463-0.796,6.774-1.729,9.923-2.798c5.589-1.897,10.667-4.219,15.175-6.939
					c13.912,8.546,28.339,14.175,42.645,16.53c8.549,1.406,17.115,1.69,25.461,0.844c0.038-0.004,0.075-0.012,0.11-0.024
					c0.216-0.073,0.36-0.287,0.336-0.523C276.447,365.398,276.202,365.198,275.927,365.226z"/>
			</g>
		</g>
		<g>
			<g>
				<g>
					<path style="fill:#8EE4FD;" d="M515.344,183.755c0,0-7.975-18.24-0.684-38.074c7.292-19.834,24.227-38.231,27.05-35.652
						S530.325,175.858,515.344,183.755z"/>
					<path style="fill:#8EE4FD;" d="M509.046,206.617c0,0,19.884,0.966,35.828-12.903c15.944-13.869,22.501-32.017,19.086-33.739
						C560.546,158.253,511.098,189.806,509.046,206.617z"/>
					<path style="fill:#8EE4FD;" d="M499.727,237.11c0,0-19.794-2.127-33.395-18.3c-13.601-16.173-17.266-35.118-13.626-36.29
						C456.346,181.348,500.305,220.185,499.727,237.11z"/>
					<path style="fill:#8EE4FD;" d="M449.983,318.436c0,0-17.561-9.377-24.126-29.463c-6.565-20.086-2.877-39.027,0.937-38.752
						C430.609,250.495,456.85,302.955,449.983,318.436z"/>
					<path style="fill:#8EE4FD;" d="M468.777,296.912c0,0,18.298,7.842,38.078,0.406c19.78-7.436,32.256-22.157,29.657-24.962
						C533.913,269.551,476.565,281.873,468.777,296.912z"/>
					<path style="fill:#8EE4FD;" d="M499.099,237.406c0,0,15.309,3.72,29.772-4.678c14.462-8.398,18.446-20.11,16.049-21.958
						C542.523,208.922,503.204,224.647,499.099,237.406z"/>
					<path style="fill:#8EE4FD;" d="M509.511,206.068c0,0-14.909-5.092-22.591-19.947c-7.681-14.855-4.745-26.873-1.73-27.143
						C488.204,158.707,512.907,193.102,509.511,206.068z"/>
					<path style="fill:#8EE4FD;" d="M484.491,272.776c0,0-14.91-5.092-22.591-19.947c-7.681-14.855-4.745-26.873-1.73-27.143
						C463.184,225.415,487.886,259.811,484.491,272.776z"/>
					<path style="fill:#8EE4FD;" d="M470.324,296.776c0,0-14.909-5.092-22.591-19.947c-7.681-14.855-4.745-26.873-1.73-27.143
						C449.017,249.415,473.72,283.811,470.324,296.776z"/>
					<path style="fill:#8EE4FD;" d="M483.444,272.767c0,0,15.772,4.061,31.972-4.464c16.2-8.525,21.689-20.626,19.358-22.576
						C532.443,243.778,489.175,259.582,483.444,272.767z"/>
					<path style="fill:#8EE4FD;" d="M449.681,318.814c0,0,13.152,9.605,31.357,7.675c18.204-1.93,27.779-11.144,26.334-13.817
						C505.927,309.999,459.882,308.683,449.681,318.814z"/>
				</g>
				<path style="fill:#76D3ED;" d="M561.93,163.63c-0.219-0.165-0.534-0.122-0.7,0.099c-13.268,17.632-30.903,31.711-51.024,40.76
					c0.005-0.02,0.011-0.039,0.016-0.059c0.083-0.107,0.117-0.235,0.101-0.363c2.524-9.041,4.892-18.193,7.223-27.424
					c1.249-4.944,2.789-9.886,4.579-14.687l17.667-47.397c0.097-0.259-0.035-0.547-0.294-0.643c-0.26-0.096-0.547,0.036-0.643,0.293
					l-17.667,47.397c-1.803,4.835-3.354,9.813-4.61,14.792c-2.272,8.997-4.579,17.919-7.031,26.735
					c-11.064-10.889-19.111-24.516-23.281-39.478c-0.074-0.266-0.353-0.425-0.615-0.347c-0.267,0.074-0.422,0.35-0.348,0.616
					c4.266,15.309,12.543,29.238,23.936,40.314c-2.92,10.432-6.059,20.71-9.622,30.77c-9.087-4.359-17.415-10.612-24.107-18.141
					c-4.696-5.283-8.637-11.207-11.962-16.346c-2.453-3.793-4.89-7.67-7.24-11.526c-0.145-0.236-0.45-0.311-0.688-0.167
					c-0.235,0.144-0.31,0.451-0.166,0.687c2.355,3.863,4.796,7.749,7.254,11.548c3.346,5.169,7.311,11.131,12.054,16.467
					c6.777,7.623,15.208,13.956,24.41,18.372c-0.031,0.104-0.029,0.216,0.013,0.323c-4.057,11.329-8.66,22.38-14.107,33.063
					c-0.251,0.492-0.513,0.994-0.772,1.492c-6.547-4.273-12.211-10.802-16.392-18.944c-3.433-6.685-5.986-14.504-8.037-24.606
					c-0.056-0.271-0.323-0.443-0.59-0.391c-0.271,0.055-0.445,0.319-0.391,0.59c2.07,10.194,4.652,18.095,8.129,24.864
					c4.276,8.33,10.086,15.021,16.814,19.387c-3.634,6.914-8.045,14.388-13.307,21.915c-11.7-11.538-20.177-26.004-24.518-41.855
					c-0.072-0.266-0.346-0.42-0.614-0.351c-0.267,0.073-0.424,0.348-0.351,0.614c4.402,16.076,13.013,30.744,24.899,42.424
					c-5.532,7.824-11.992,15.683-19.467,23.017c-7.647-15.057-14.321-30.775-19.836-46.726c-1.839-5.319-3.647-10.992-3.81-16.722
					c-0.008-0.276-0.238-0.472-0.515-0.486c-0.275,0.008-0.493,0.238-0.485,0.514c0.167,5.872,2,11.627,3.864,17.02
					c5.563,16.092,12.302,31.949,20.028,47.129c-10.332,9.996-22.569,18.97-36.965,25.452c-0.252,0.113-0.364,0.409-0.251,0.661
					c0.084,0.186,0.266,0.295,0.456,0.295c0.069,0,0.139-0.014,0.205-0.044c14.357-6.465,26.58-15.384,36.917-25.324
					c6.82,1.948,13.89,2.913,20.962,2.913c12.298,0,24.594-2.908,35.543-8.591c0.245-0.127,0.341-0.429,0.213-0.674
					c-0.127-0.245-0.429-0.343-0.674-0.213c-16.847,8.741-36.914,10.816-55.202,5.75c7.429-7.256,13.864-15.028,19.391-22.78
					c0.996,0.318,2.016,0.454,3.046,0.454c1.848,0,3.724-0.408,5.534-0.857c19.48-4.82,37.951-13.367,55.813-21.633
					c0.251-0.116,0.359-0.413,0.244-0.664c-0.116-0.251-0.413-0.359-0.664-0.244c-17.819,8.246-36.246,16.772-55.634,21.57
					c-2.569,0.636-5.264,1.174-7.719,0.507c5.424-7.699,9.955-15.352,13.683-22.43c0.036-0.002,0.073-0.005,0.109-0.014
					c19.975-5.325,36.175-13.676,48.15-24.82c0.202-0.189,0.213-0.505,0.025-0.707c-0.188-0.202-0.504-0.212-0.707-0.025
					c-11.699,10.887-27.498,19.08-46.955,24.37c0.24-0.462,0.484-0.928,0.717-1.385c5.505-10.799,10.152-21.967,14.243-33.413
					c14.789-6.764,29.255-14.594,42.999-23.282c0.233-0.148,0.303-0.456,0.155-0.69c-0.149-0.234-0.46-0.303-0.69-0.156
					c-13.433,8.492-27.559,16.156-42.002,22.809c3.387-9.593,6.395-19.378,9.193-29.305c0.056-0.004,0.113-0.011,0.168-0.036
					c20.517-9.107,38.497-23.402,51.994-41.34C562.195,164.109,562.151,163.796,561.93,163.63z"/>
			</g>
		</g>
	</g>
	<g>
		<g>
			<path style="fill:#FD6E74;" d="M449.489,127.173L382.58,113.66c-2.365-0.478-4.67,1.052-5.148,3.418l-9.114,45.123
				c-0.478,2.365,1.053,4.67,3.418,5.148l25.332,5.116l6.77,8.34l9.476-5.058l25.332,5.116c2.365,0.478,4.67-1.053,5.148-3.418
				l9.113-45.123C453.385,129.956,451.855,127.651,449.489,127.173z"/>
			<path style="fill:#FFFFFF;" d="M411.891,139.713c0,0,0.074-6.681-8.078-6.839c-4.076-0.079-6.17,2.394-7.244,4.887
				c-1.144,2.652-1.164,5.651-0.208,8.376c1.248,3.56,4.065,9.435,10.172,15.125c0.467,0.435,1.13,0.585,1.735,0.382
				c3.302-1.112,14.08-5.239,17.95-12.873c0,0,4.348-8.9-4.921-12.473C421.296,136.298,414.169,134.221,411.891,139.713z"/>
		</g>
		<g>
			<path style="fill:#FD6E74;" d="M343.77,90.921l-41.11,11.307c-1.453,0.4-2.307,1.902-1.908,3.355l7.625,27.724
				c0.4,1.453,1.902,2.307,3.355,1.908l15.564-4.281l6.123,2.743l3.859-5.489l15.564-4.281c1.453-0.4,2.307-1.902,1.908-3.355
				l-7.625-27.724C346.725,91.375,345.223,90.521,343.77,90.921z"/>
			<path style="fill:#FFFFFF;" d="M326.338,108.499c0,0-1.84-3.746-6.43-1.538c-2.295,1.104-2.766,3.072-2.663,4.765
				c0.109,1.801,0.942,3.478,2.243,4.729c1.698,1.634,4.924,4.116,9.93,5.568c0.383,0.111,0.795,0.008,1.075-0.276
				c1.528-1.55,6.375-6.886,6.383-12.232c0,0-0.082-6.187-6.256-5.568C330.62,103.947,326.062,104.796,326.338,108.499z"/>
		</g>
	</g>
	<g>
		<g>
			<g>
				<path style="fill:#FFA68C;" d="M595.768,336.274l-17.515,29.743c-12.598-2.11-52.961-8.841-99.192-16.237
					c-4.409,14.333-9.782,28.458-14.121,42.746l116.553-2.888l0-0.011l3.535,0.072c6.45,0.131,11.812-4.938,12.043-11.385
					l1.506-41.982L595.768,336.274z"/>
				<path style="fill:#FFA430;" d="M591.881,390.401c-2.689-0.165-5.364-0.537-7.995-1.115c1.977-4.917,3.542-10.279,5.474-15.214
					c1.423-3.634,2.826-7.297,3.639-11.114c0.813-3.817,1.019-7.824,0.045-11.604c-2.016-1.701-2.671-4.679-2.221-7.278
					c0.45-2.599,1.81-4.942,3.224-7.168c0.59-0.929,1.233-1.887,2.201-2.411c0.968-0.525,2.354-0.448,2.978,0.458l-1.319,49.829
					C597.821,388.012,595.103,390.598,591.881,390.401z"/>
				<g>
					<polygon style="fill:#24629F;" points="287.13,399.467 494.576,394.725 506.59,351.439 294.105,330.539 257.904,346.121 					
						"/>
					<path style="fill:#2E2044;" d="M501.341,370.354l-4.242,15.271l-6.691,9.195l-44.528,1.018l-63.798-14.046l-39.295,16.402
						l-32.431,0.741c0.377-0.149,0.763-0.307,1.14-0.466l70.298-29.344l101.538,22.355l16.012-21.992
						C500.058,369.793,500.725,370.078,501.341,370.354z"/>
				</g>
				<path style="opacity:0.5;fill:#FFA68C;" d="M579.904,381.653c0.588,0.496,0.772,1.263,0.717,1.972
					c-0.076,0.706-0.401,1.426-1.074,1.802c-0.03-0.756,0.033-1.308,0.079-1.897C579.693,382.944,579.734,382.389,579.904,381.653z"
					/>
			</g>
			<g>
				<g>
					<g>
						<path style="fill:#FFAE96;" d="M587.879,393.217l-0.422-2.252l-32.826-10.309l-95.864-37.363
							c-2.551,5.45-5.053,10.922-7.463,16.425c-3.079,7.031-6.13,14.084-9.298,21.079c42.018,9.249,79.862,14.621,92.085,16.342
							c0.584,3.271,1.165,6.52,1.307,7.318L587.879,393.217z"/>
						<g style="opacity:0.5;">
							<path style="fill:#FFA68C;" d="M505.688,361.212c6.03,2.015,12.022,4.132,18.008,6.265
								c5.987,2.131,11.943,4.346,17.915,6.515c5.945,2.245,11.904,4.449,17.835,6.732l8.889,3.443
								c2.95,1.182,5.912,2.332,8.852,3.542c-3.018-0.998-6.015-2.056-9.023-3.082l-8.986-3.181
								c-5.986-2.133-11.943-4.345-17.915-6.517c-5.944-2.247-11.905-4.448-17.834-6.734
								C517.5,365.913,511.575,363.614,505.688,361.212z"/>
							<path style="fill:#FFA68C;" d="M533.823,393.348c0.551,0.673,0.926,1.252,1.361,1.829c0.416,0.59,0.851,1.125,1.32,1.859
								c-0.884-0.051-1.626-0.597-2.128-1.271C533.891,395.077,533.601,394.204,533.823,393.348z"/>
						</g>
					</g>
					<path style="fill:#FFA430;" d="M534.545,404.784c-0.74-2.59-1.279-5.237-1.61-7.91c5.294,0.228,10.872-0.081,16.168,0.098
						c3.9,0.132,7.821,0.236,11.691-0.268c3.87-0.504,7.717-1.644,10.957-3.82c0.932-2.467,3.523-4.076,6.123-4.517
						c2.601-0.441,5.262,0.062,7.833,0.654c1.073,0.247,2.19,0.535,3.006,1.272c0.817,0.738,1.206,2.07,0.559,2.96l-47.426,15.343
						C538.775,409.589,535.431,407.888,534.545,404.784z"/>
				</g>
				<g>
					<path style="fill:#24629F;" d="M224.762,325.707c0,0-17.401,26.405-13.935,61.335c2.172,21.894,34.924,23.44,59.068,21.545
						c14.316-1.124,28.35-4.583,41.602-10.115l70.298-29.342l101.537,22.352l22.952-31.533c0,0-114.167-49.737-130.852-50.356
						c-16.685-0.619-78.633,16.968-78.633,16.968L224.762,325.707z"/>
					<g style="opacity:0.5;">
						<g>
							<g style="opacity:0.5;">
								<g>
									<path style="fill:#24629F;" d="M226.976,342.693c0.508,6.451,1.029,12.927,2.4,19.253
										c1.341,6.311,3.662,12.481,7.444,17.71c1.863,2.621,4.089,4.984,6.629,6.945c1.286,0.957,2.637,1.828,4.065,2.555
										c1.435,0.706,2.925,1.311,4.469,1.738c3.08,0.883,6.307,1.21,9.515,1.1c3.211-0.122,6.402-0.639,9.534-1.385
										c6.271-1.503,12.303-3.9,18.279-6.356c5.972-2.478,11.83-5.226,17.573-8.194c5.733-2.987,11.351-6.194,16.813-9.65
										c5.467-3.444,10.781-7.159,16.332-10.537c5.547-3.365,11.394-6.37,17.658-8.261c6.253-1.944,12.941-2.34,19.4-1.506
										c6.48,0.811,12.757,2.661,18.877,4.79c6.124,2.146,12.155,4.492,18.27,6.612c12.214,4.286,24.579,8.146,37.073,11.541
										c12.48,3.446,25.084,6.449,37.784,8.999c-12.73-2.39-25.378-5.234-37.911-8.526c-12.523-3.33-24.916-7.15-37.164-11.385
										c-6.132-2.096-12.186-4.421-18.295-6.532c-6.107-2.095-12.343-3.9-18.734-4.671c-6.377-0.791-12.903-0.376-19.035,1.558
										c-6.145,1.882-11.904,4.874-17.405,8.235c-5.53,3.332-10.856,7.021-16.363,10.457c-5.499,3.446-11.152,6.642-16.918,9.614
										c-5.776,2.954-11.666,5.686-17.669,8.146c-6.002,2.437-12.066,4.819-18.411,6.312c-3.168,0.74-6.402,1.251-9.666,1.361
										c-3.261,0.098-6.553-0.248-9.696-1.165c-1.575-0.444-3.096-1.069-4.561-1.797c-1.456-0.749-2.831-1.644-4.138-2.626
										c-2.577-2.011-4.837-4.415-6.699-7.09c-3.765-5.345-6.02-11.594-7.286-17.941
										C227.843,355.632,227.404,349.149,226.976,342.693z"/>
									<path style="fill:#24629F;" d="M239.714,339.109c-0.334,2.529-0.814,5.032-1.347,7.523
										c-0.522,2.494-1.159,4.962-1.832,7.419c-0.696,2.451-1.432,4.891-2.277,7.295l-1.298,3.594
										c-0.478,1.182-0.93,2.372-1.451,3.538c0.307-1.239,0.666-2.458,0.986-3.691l1.03-3.67l2.049-7.334l2.051-7.334
										C238.311,344.004,238.977,341.551,239.714,339.109z"/>
									<path style="fill:#24629F;" d="M382.863,313.757c-0.029,0.866-0.325,1.585-0.683,2.268
										c-0.386,0.668-0.837,1.301-1.558,1.784c0.027-0.867,0.323-1.586,0.683-2.268
										C381.693,314.874,382.145,314.241,382.863,313.757z"/>
									<path style="fill:#24629F;" d="M384.973,364.345c-0.259,1.942-1.271,3.758-2.65,5.177
										c-0.191,0.197-0.505,0.203-0.703,0.012c-0.068-0.065-0.114-0.149-0.136-0.234c-0.232-0.902-0.526-1.801-0.771-2.729
										c-0.25-0.925-0.471-1.88-0.517-2.861c0.448,0.87,0.865,1.722,1.253,2.601c0.394,0.875,0.738,1.784,1,2.732l-0.839-0.221
										C382.913,367.515,383.969,366.01,384.973,364.345z"/>
								</g>
							</g>
							<path style="fill:#24629F;" d="M482.034,349.25c3.778,1.224,7.435,2.726,11.062,4.295c3.615,1.597,7.199,3.264,10.661,5.211
								c-3.779-1.222-7.436-2.724-11.062-4.295C489.081,352.861,485.496,351.194,482.034,349.25z"/>
						</g>
					</g>
				</g>
			</g>
		</g>
		<g>
			<g>
				<path style="fill:#FFAE96;" d="M303.052,181.905l-1.069-1.134c0,0-14.56-13.947-28.541-2.487
					c-2.158,1.764-4.146,3.697-5.932,5.742c-0.446-0.58-1.065-1.067-1.938-1.309c-2.758-0.765-7.846,7.577-5.319,12.843
					c-2.909,7.185-3.003,14.573,1.082,20.495c4.236,7.601,11.811,13.045,14.295,13.43c1.521,0.243,4.644-1.287,8.054-3.37
					c0.021-0.02,0.042-0.02,0.064-0.04c0.307-0.188,0.604-0.388,0.922-0.586c2.394-1.489,4.846-3.194,6.971-4.733
					c0.531-0.379,1.042-0.759,1.53-1.119c0.106-0.08,0.202-0.15,0.308-0.23c2.392-1.77,8.392-6.718,10.369-8.864
					C316.094,197.242,303.052,181.905,303.052,181.905z"/>
				<g>
					<path style="fill:#FFC0AD;" d="M285.386,208.235c0,0,0.482,1.684-0.574,2.716c-1.055,1.032-1.774,0.308-1.774,0.308
						s-1.126-0.777-1.34-1.181c-0.149-0.281-0.168-1.084-0.168-1.084S283.134,205.454,285.386,208.235z"/>
					<g>
						<path style="fill:#2E2044;" d="M282.815,211.1c0.669,0.278,1.296-0.051,1.611-0.463c0.336-0.447,0.478-1.022,0.504-1.649
							c0.03-0.323,0.02-0.627,0.034-1.01c0.033-0.499,0.305-0.91,0.613-1.163c0.616-0.52,1.345-0.698,2.054-0.739
							c-0.589,0.388-1.149,0.805-1.513,1.261c-0.166,0.237-0.268,0.46-0.242,0.66c0.013,0.304,0.032,0.689,0.015,1.053
							c-0.047,0.732-0.286,1.58-0.937,2.12C284.333,211.747,283.243,211.725,282.815,211.1z"/>
						<path style="fill:#2E2044;" d="M281.337,208.708c0.272-0.105,0.461,0.087,0.5,0.269c0.031,0.183-0.077,0.432-0.369,0.431
							c-0.171-0.226-0.247-0.246-0.263-0.313C281.197,209.027,281.26,208.98,281.337,208.708z"/>
					</g>
					<path style="fill:#FFC0AD;" d="M272.428,206.522c-2.316,2.183-5.963,2.075-8.146-0.241c-2.183-2.316-2.075-5.963,0.241-8.146
						c2.316-2.183,5.963-2.075,8.146,0.241C274.852,200.693,274.744,204.34,272.428,206.522z"/>
					<path style="fill:#FFC0AD;" d="M291.64,220.756c-2.125,1.538-4.577,3.244-6.971,4.733c-0.318,0.199-0.615,0.398-0.922,0.586
						c-0.021,0.02-0.042,0.02-0.064,0.04c-0.74-0.292-1.413-0.749-1.987-1.358c-2.188-2.321-2.069-5.967,0.241-8.145
						c2.321-2.188,5.957-2.08,8.145,0.241C291.12,217.954,291.63,219.352,291.64,220.756z"/>
					<path style="fill:#2E2044;" d="M282.228,194.123c0.455-0.145,0.946-0.196,1.44-0.163c0.498,0.018,0.986,0.166,1.456,0.354
						c0.471,0.193,0.901,0.486,1.272,0.835c0.362,0.358,0.676,0.766,0.879,1.226c0.165,0.374-0.004,0.811-0.379,0.976
						c-0.307,0.135-0.657,0.046-0.863-0.198l-0.021-0.026c-0.243-0.287-0.471-0.57-0.736-0.816c-0.255-0.255-0.536-0.479-0.836-0.69
						c-0.301-0.215-0.643-0.357-0.999-0.507c-0.361-0.134-0.746-0.232-1.159-0.309l-0.012-0.002c-0.191-0.036-0.316-0.219-0.28-0.41
						C282.014,194.262,282.109,194.161,282.228,194.123z"/>
					<path style="fill:#2E2044;" d="M297.137,209.941c0.171-0.446,0.252-0.933,0.247-1.428c0.012-0.498-0.107-0.993-0.267-1.474
						c-0.165-0.482-0.432-0.928-0.758-1.319c-0.336-0.383-0.725-0.72-1.172-0.95c-0.364-0.187-0.81-0.043-0.997,0.32
						c-0.153,0.298-0.084,0.653,0.147,0.873l0.024,0.023c0.273,0.26,0.541,0.504,0.771,0.783c0.24,0.27,0.447,0.563,0.639,0.875
						c0.197,0.313,0.318,0.663,0.447,1.027c0.113,0.368,0.188,0.759,0.24,1.175l0.002,0.012c0.024,0.192,0.2,0.329,0.393,0.304
						C296.986,210.147,297.092,210.057,297.137,209.941z"/>
					<path style="fill:#2E2044;" d="M274.561,211.898c0.199,0.38,0.299,0.641,0.413,0.925c0.099,0.289,0.193,0.552,0.288,0.971
						c-0.438-0.04-0.748-0.378-0.892-0.748C274.24,212.672,274.256,212.214,274.561,211.898z"/>
					<g>
						<path style="fill:#2E2044;" d="M281.89,202.021c-1.132,1.067-2.504,1.451-3.064,0.857c-0.56-0.594-0.096-1.94,1.036-3.007
							c1.132-1.067,2.504-1.451,3.064-0.857C283.486,199.608,283.022,200.954,281.89,202.021z"/>
						<path style="fill:#2E2044;" d="M282.926,199.014c0,0,1.516,1.207,2.5,1.137c0,0-1.603,1.262-3.219,0.545L282.926,199.014z"/>
					</g>
					<g>
						<path style="fill:#2E2044;" d="M290.722,211.393c-1.132,1.067-2.504,1.451-3.064,0.857c-0.56-0.594-0.096-1.94,1.036-3.008
							c1.132-1.067,2.504-1.451,3.064-0.857C292.318,208.979,291.854,210.326,290.722,211.393z"/>
						<path style="fill:#2E2044;" d="M291.759,208.385c0,0,1.516,1.207,2.5,1.137c0,0-1.603,1.262-3.219,0.545L291.759,208.385z"/>
					</g>
					<path style="fill:#2E2044;" d="M276.233,205.838c0.209,1.736,0.422,3.313,0.931,4.794c0.225,0.749,0.574,1.442,0.967,2.125
						c0.383,0.703,0.914,1.304,1.444,2.024c-0.827-0.272-1.64-0.732-2.241-1.412c-0.63-0.653-1.104-1.465-1.389-2.326
						c-0.276-0.865-0.411-1.766-0.361-2.655C275.63,207.504,275.813,206.622,276.233,205.838z"/>
					<g>
						<path style="fill:#2E2044;" d="M264.028,187.334c-0.194-0.493,0.171-1.11,0.709-1.357c0.582-0.271,1.289-0.087,1.752,0.293
							c0.494,0.363,0.781,0.956,0.915,1.498c0.128,0.556,0.116,1.089,0.092,1.587c-0.152,2-0.974,3.992-2.47,5.297
							c0.605-1.867,1.045-3.595,1.161-5.389c0.081-0.9,0.054-1.702-0.389-2.24c-0.22-0.262-0.53-0.462-0.871-0.432
							C264.572,186.614,264.145,186.847,264.028,187.334z"/>
						<path style="fill:#2E2044;" d="M262.573,192.485c-0.302-0.447-0.283-1.069-0.041-1.577c0.232-0.521,0.707-0.946,1.295-1.142
							c0.595-0.175,1.227-0.096,1.715,0.2c0.488,0.279,0.859,0.781,0.863,1.322c-0.472-0.239-0.861-0.323-1.224-0.362
							c-0.362-0.024-0.687-0.004-0.964,0.094c-0.284,0.076-0.563,0.245-0.847,0.471C263.094,191.729,262.823,192.02,262.573,192.485
							z"/>
					</g>
				</g>
			</g>
			<g>
				<path style="fill:#2E2044;" d="M311.825,188.991c-4.229-7.968-11.852-14.057-20.551-16.455
					c-8.699-2.388-18.945-2.074-26.654,2.6c-5.4-0.943-10.786,1.835-14.977,5.359c-4.191,3.524-7.685,7.864-12.143,11.033
					c-6.134,4.373-13.799,6.245-21.329,6.305c-7.53,0.07-14.974-1.583-22.188-3.73c-6.832-2.035-13.613-4.55-20.733-4.969
					c-7.11-0.409-14.82,1.675-19.199,7.283c-5.013,6.421-6.18,15.686-5.568,23.805c0.611,8.12,4.064,16.282,10.514,21.255
					c6.46,4.973,14.996,6.203,23.137,6.682c4.546,0.26,11.579,4.881,18.221,9.42c1.804-1.806,3.592-3.442,5.244-4.865l-0.011-0.04
					c0,0,0.315-0.246,0.817-0.646c0.138-0.123,0.305-0.246,0.473-0.38c2.538-2.121,4.678-3.664,5.911-4.518
					c0.473-0.34,0.878-0.618,1.174-0.794c0,0,0.019-0.03,0.048-0.091c0.029-0.031,0.058-0.081,0.097-0.142
					c0.039-0.061,0.088-0.122,0.136-0.203c0.059-0.071,0.127-0.153,0.195-0.244c0.068-0.091,0.156-0.193,0.244-0.285
					c1.017-1.16,3.144-2.863,6.649-2.633c4.902-2.948,10.041-5.57,14.302-7.606c4.677-2.223,10.691-6.083,13.157-10.843
					c2.59-5.052,5.191-10.065,8.348-14.789l1.253-1.885c-0.377-3.873,0.382-7.969,2.032-12.003
					c-2.515-5.271,2.6-13.604,5.356-12.839c0.612,0.17,1.094,0.464,1.482,0.822c0.583,2.082,1.497,6.241,0.78,10.003
					c0,0,2.214-1.598,3.812-3.964c1.278,1.228,2.688,2.339,4.088,3.43c3.348,2.609,6.819,5.28,10.922,6.367
					c5.155,1.366,10.969-0.101,14.859-3.749c-2.273,4.663-4.569,9.369-5.31,14.503c-0.292,2.02-0.136,4.475,1.603,5.543
					c0.111,0.068-20.779,14.021-22.294,13.771c-0.783-0.124-2.165-0.758-3.686-1.798c-1.486,1.75-2.18,3.133-2.159,4.163
					c0.061,3.079,6.021,3.557,11.302,5.592c1.389-3.088,2.798-6.177,4.602-9.033c2.997-4.74,7.776-9.366,13.131-10.673
					c4.011-0.98,7.733-2.934,10.523-5.98c2.203-2.404,3.99-5.08,4.818-8.217C315.529,198.689,314.194,193.445,311.825,188.991z"/>
				<g style="opacity:0.5;">
					<path style="fill:#2E2044;" d="M175.689,189.777c3.045,8.082,7.817,15.671,14.56,21.097c3.362,2.693,7.2,4.785,11.297,6.081
						c4.09,1.293,8.449,1.802,12.698,1.256c4.254-0.531,8.292-2.2,11.938-4.454c3.666-2.244,7.023-4.975,10.347-7.745
						c3.32-2.777,6.669-5.578,10.35-7.943c3.665-2.359,7.721-4.285,12.092-5.036c0.26-0.045,0.508,0.13,0.552,0.39
						c0.032,0.189-0.052,0.372-0.2,0.475c-4.456,3.103-8.413,6.879-12.139,10.851c-3.734,3.969-7.189,8.222-10.943,12.233
						c-3.742,4.008-7.765,7.837-12.409,10.853c-4.62,2.998-9.861,5.233-15.406,5.806c-5.546,0.597-11.171-0.689-16.104-3.141
						c-4.957-2.453-9.317-5.982-12.974-10.084c-3.645-4.116-6.614-8.845-8.592-13.969c-1.969-5.112-2.876-10.695-2.14-16.134
						c-0.645,5.451,0.355,10.99,2.394,16.034c2.042,5.061,5.087,9.68,8.73,13.718c3.655,4.023,7.995,7.464,12.881,9.824
						c4.865,2.361,10.351,3.553,15.718,2.923c5.373-0.585,10.485-2.765,15.007-5.724c4.542-2.969,8.504-6.757,12.206-10.748
						c3.714-3.992,7.155-8.254,10.907-12.27c3.745-4.01,7.777-7.809,12.319-10.959l0.353,0.865
						c-4.203,0.708-8.149,2.557-11.758,4.865c-3.625,2.312-6.953,5.076-10.284,7.846c-3.34,2.759-6.726,5.524-10.481,7.775
						c-3.732,2.261-7.901,3.943-12.279,4.447c-4.367,0.52-8.812-0.046-12.961-1.4c-4.153-1.359-8.042-3.508-11.391-6.301
						C183.251,205.606,178.601,197.907,175.689,189.777z"/>
					<path style="fill:#2E2044;" d="M166.131,243.695c2.607-2.194,5.556-3.996,8.701-5.358c3.148-1.36,6.503-2.239,9.915-2.681
						c3.418-0.444,6.901-0.281,10.29,0.2c3.398,0.462,6.736,1.175,10.082,1.711c3.335,0.558,6.708,0.948,10.059,0.742
						c1.673-0.097,3.333-0.353,4.94-0.801c1.597-0.47,3.143-1.109,4.601-1.929c2.881-1.688,5.399-4.046,7.222-6.88
						c1.895-2.792,3.045-6.072,3.418-9.456c-0.146,3.406-1.211,6.781-3.004,9.718c-1.78,2.951-4.302,5.446-7.244,7.279
						c-2.964,1.826-6.429,2.768-9.874,2.977c-3.457,0.242-6.903-0.126-10.281-0.664c-3.374-0.572-6.697-1.312-10.046-1.797
						c-1.673-0.246-3.353-0.421-5.035-0.487c-1.681-0.047-3.365-0.006-5.043,0.148c-3.351,0.341-6.67,1.121-9.814,2.371
						C171.847,239.982,168.876,241.679,166.131,243.695z"/>
					<path style="fill:#2E2044;" d="M310.635,187.276c-3.655-1.273-7.498-1.809-11.336-2.049c-3.841-0.276-7.704-0.288-11.574-0.586
						c-3.862-0.284-7.763-0.931-11.42-2.387c-3.628-1.447-7.063-3.724-9.371-7.001l0.893-0.394c0.77,3.577,2.491,6.95,4.956,9.664
						c2.456,2.726,5.654,4.755,9.15,5.885c3.501,1.126,7.312,1.266,10.937,0.518c3.636-0.718,7.102-2.366,9.959-4.791
						c-5.451,5.185-13.789,7.17-21.12,5c-3.667-1.059-7.009-3.189-9.596-6.002c-2.594-2.811-4.423-6.32-5.259-10.059
						c-0.06-0.268,0.109-0.534,0.377-0.594c0.203-0.045,0.404,0.04,0.517,0.201c2.152,3.082,5.394,5.302,8.898,6.727
						c3.519,1.456,7.335,2.06,11.147,2.462c3.824,0.389,7.691,0.491,11.547,0.865C303.182,185.141,307.057,185.786,310.635,187.276z
						"/>
					<path style="fill:#2E2044;" d="M303.772,194.751c-0.636,3.357-1.549,6.645-1.424,9.948c0.047,1.633,0.39,3.263,1.027,4.772
						c0.65,1.499,1.612,2.897,2.984,3.929c-1.577-0.691-2.872-2.032-3.687-3.59c-0.837-1.558-1.255-3.317-1.323-5.079
						c-0.048-1.757,0.213-3.496,0.665-5.158C302.452,197.906,303.082,196.314,303.772,194.751z"/>
				</g>
			</g>
		</g>
		<g>
			<g>
				<path style="fill:#FFAE96;" d="M439.072,218.003c-0.433-0.109-0.899,0.161-1.301,0.418c-1.924,1.234-3.482,2.999-5.407,4.233
					c1.814-2.458,3.261-5.448,5.075-7.907c0.304-0.412,0.616-0.841,0.729-1.325c0.113-0.484-0.031-1.041-0.462-1.237
					c-0.604-0.274-1.325,0.259-1.852,0.749c-2.364,2.198-4.728,4.396-7.091,6.594c2.465-3.024,5.024-6.244,5.702-9.949
					c0.126-0.688,0.123-1.515-0.448-1.854c-0.419-0.249-1.01-0.12-1.449,0.18c-0.438,0.3-0.758,0.741-1.067,1.172
					c-2.019,2.816-4.038,5.631-6.057,8.447c1.053-2.188,2.105-4.376,3.158-6.564c0.259-0.538,0.522-1.091,0.578-1.668
					c0.055-0.576-0.142-1.19-0.632-1.453c-0.497-0.267-1.173-0.106-1.676,0.244c-0.504,0.35-0.872,0.86-1.226,1.359
					c-1.812,2.558-3.543,5.169-5.189,7.825c-0.388,0.626-0.937,1.35-1.642,1.308c-0.854-0.05-1.068-1.122-1.152-1.962
					c-0.075-0.746-0.215-1.504-0.624-2.105c-0.41-0.602-1.143-1.019-1.907-0.878c-0.856,0.158-1.522,0.965-1.789,1.796
					c-0.268,0.831-0.226,1.695-0.227,2.542c-0.005,2.951-0.579,5.953-1.683,8.799c-0.162,0.418-0.336,0.837-0.506,1.256
					c-0.002,0.002-0.004,0.004-0.006,0.006c-7.795,7.573-31.175,29.911-58.263,52.142c-15.359-8.719-29.85-18.405-41.766-26.747
					c-1.048,1.692-2.094,3.385-3.133,5.083c-3.227,6.486-6.213,13.101-8.902,19.815c-1.538,3.84-3.002,7.713-4.435,11.598
					c9.094,4.699,18.713,9.176,27.98,13.466c2.733,1.265,7.535,3.523,12.747,5.969c13.462,6.316,29.463,3.701,40.135-6.654
					c2.639-2.56,5.072-4.994,6.884-6.944c19.557-21.029,36.32-44.669,41.318-56.942c0.368-0.476,0.709-0.996,1.053-1.417
					c1.334-1.634,2.716-3.231,4.145-4.788c1.654-1.802,3.369-3.551,5.141-5.24c2.313-2.205,4.841-4.49,5.752-7.465
					C439.802,219.172,439.784,218.182,439.072,218.003z"/>
				<g>
					<g>
						<g>
							<path style="fill:#FFAE96;" d="M217.869,258.511c1.983,3.549,3.529,7.397,5.01,11.237c12.467,3.514,25.265,5.819,38.25,5.817
								c14.57-0.002,28.533-2.688,42.513-6.603c1.105-0.309,2.254-0.628,3.426-0.962c0.376-2.537,0.643-4.701,0.753-6.33
								c0.008-0.28,0.279-2.594,0.528-5.217c-0.253-0.141-0.506-0.268-0.744-0.409c0.069-0.854,0.137-1.738,0.191-2.577l5.775-0.132
								l-0.461-0.254c-5.03-6.501-20.962-10.812-30.633-15.178c-5.6-2.518-12.413-2.759-12.489-6.095
								c-0.023-1.029,0.578-2.351,2.053-4.105c0.129-0.15,0.258-0.3,0.401-0.465l-9.221-22.636l-3.653,0.995l-2.558,3.866
								c-3.141,4.732-5.731,9.761-8.306,14.818c-2.449,4.761-8.447,8.647-13.115,10.885c-7.104,3.414-16.649,8.489-23.463,13.937
								C213.428,252.508,216.083,255.314,217.869,258.511z"/>
							<path style="opacity:0.5;fill:#FFAE96;" d="M246.395,246.561c1.232,0.052,2.354,0.389,3.451,0.793
								c1.085,0.433,2.143,0.936,3.091,1.725c-1.233-0.05-2.355-0.387-3.451-0.793C248.402,247.851,247.343,247.348,246.395,246.561
								z"/>
						</g>
						<path style="fill:#2E2044;" d="M272.039,227.704c-1.474,1.754-2.076,3.076-2.053,4.105c-2.657-2.38-6.552-6.231-8.453-9.642
							c-2.646-3.85-3.527-8.299-3.03-12.913c0.452,2.401,1.372,4.703,2.831,6.801C264.232,221.266,268.709,225.457,272.039,227.704z
							"/>
					</g>
					<g>
						<path style="fill:#FFA430;" d="M313.614,252.848c-4.759-4.436-11.408-7.325-14.823-9.057
							c-1.205-0.716-1.903-1.122-1.903-1.122c-1.963-1.651-7.97-1.962-7.97-1.962l4.405,1.723c0,0-7.141,18.145-28.357,20.067
							c-21.216,1.922-48.267-17.005-48.267-17.005l4.656-2.753c-0.01,0-0.01,0-0.02,0c-3.505-0.23-5.632,1.472-6.649,2.633
							c-0.088,0.092-0.176,0.193-0.244,0.285c-0.068,0.091-0.137,0.173-0.195,0.244c-0.048,0.081-0.097,0.142-0.136,0.203
							c-0.039,0.061-0.068,0.111-0.097,0.142c-0.029,0.061-0.048,0.091-0.048,0.091c-0.296,0.176-0.701,0.454-1.174,0.794
							c-1.233,0.855-3.373,2.397-5.911,4.518c-0.167,0.133-0.335,0.257-0.473,0.38c-0.502,0.4-0.817,0.646-0.817,0.646l0.011,0.04
							c-1.652,1.423-3.44,3.059-5.244,4.865c-3.667,3.704-7.399,8.159-10.241,13.156c-8.215,14.416-17.808,47.613-17.808,47.613
							s34.199-2.93,47.107-7.687l0.32-0.507l4.352,17.667c43.182,16.816,73.486-1.46,73.486-1.46
							c1.446-5.24,4.303-16.499,7.324-28.571l17.624,8.572l19.664-33.727C334.365,266.269,323.003,258.753,313.614,252.848z"/>
						<g>
							<path style="opacity:0.5;fill:#FFA430;" d="M219.938,309.73c1.16-3.627,2.521-7.151,3.882-10.679
								c1.389-3.518,2.776-7.032,4.384-10.483c-0.86,3.711-2.086,7.308-3.453,10.847
								C223.356,302.942,221.819,306.418,219.938,309.73z"/>
							<g style="opacity:0.5;">
								<g>
									<path style="fill:#FFA430;" d="M214.542,248.071c3.398,3.046,6.994,5.848,10.799,8.324
										c3.804,2.473,7.78,4.683,11.939,6.487c4.126,1.878,8.428,3.354,12.813,4.521l3.307,0.811l3.343,0.664l3.368,0.554
										l3.394,0.419c-1.139-0.042-2.281-0.093-3.422-0.156l-3.415-0.333l-3.392-0.53l-3.368-0.684
										c-4.47-1.024-8.826-2.526-13.034-4.356c-4.175-1.903-8.209-4.129-11.962-6.766
										C221.16,254.396,217.654,251.415,214.542,248.071z"/>
									<path style="fill:#FFA430;" d="M199.759,260.963c2.662-0.732,5.519-0.597,8.184,0.132c2.672,0.738,5.177,2,7.479,3.534
										c4.59,3.145,8.255,7.345,12.33,10.981c2.034,1.828,4.192,3.498,6.54,4.855c2.346,1.359,4.866,2.42,7.476,3.15
										c5.209,1.457,10.839,1.603,16.007,0.018c5.235-1.489,9.473-5.138,14.094-8.151c2.322-1.502,4.812-2.86,7.552-3.57
										c2.75-0.74,5.605-0.573,8.33-0.376c2.73,0.184,5.485,0.376,8.087-0.335c2.594-0.708,4.904-2.293,6.757-4.265
										c1.879-1.967,3.303-4.341,4.429-6.835c1.132-2.497,1.994-5.113,2.866-7.72c-0.769,2.638-1.545,5.284-2.624,7.826
										c-1.064,2.54-2.44,4.991-4.312,7.061c-1.861,2.058-4.227,3.746-6.945,4.54c-2.729,0.792-5.574,0.631-8.305,0.495
										c-2.739-0.147-5.475-0.259-8.067,0.445c-2.598,0.688-4.997,2.005-7.272,3.496c-2.278,1.5-4.469,3.165-6.788,4.687
										c-2.313,1.518-4.819,2.856-7.513,3.658c-5.386,1.618-11.195,1.427-16.543-0.1c-5.371-1.505-10.3-4.478-14.284-8.313
										c-4.055-3.748-7.632-7.971-12.092-11.147c-2.226-1.572-4.66-2.882-7.275-3.682
										C205.259,260.568,202.447,260.337,199.759,260.963z"/>
									<path style="fill:#FFA430;" d="M192.559,266.308c2.565-1.216,5.544-1.403,8.323-0.848c2.793,0.549,5.442,1.761,7.759,3.426
										c4.641,3.384,7.918,8.164,11.238,12.683c1.667,2.269,3.373,4.504,5.276,6.547c1.904,2.036,4.037,3.865,6.459,5.2
										c4.858,2.695,10.674,3.26,16.143,2.425c5.533-0.768,10.687-3.15,15.72-5.645c5.037-2.487,10.123-5.171,15.708-6.449
										c2.769-0.653,5.564-1.062,8.293-1.708c2.728-0.631,5.394-1.553,7.752-3.06c4.764-2.924,8.348-7.731,9.85-13.171
										c-1.284,5.505-4.813,10.462-9.586,13.585c-2.382,1.587-5.117,2.576-7.865,3.26c-2.754,0.699-5.546,1.154-8.26,1.841
										c-5.435,1.365-10.45,3.976-15.485,6.516c-5.026,2.523-10.272,4.997-15.979,5.819c-5.635,0.829-11.665,0.224-16.731-2.62
										c-2.522-1.408-4.715-3.315-6.648-5.405c-1.943-2.092-3.633-4.382-5.266-6.687c-3.252-4.588-6.417-9.344-10.907-12.74
										c-2.219-1.686-4.788-2.947-7.522-3.559C198.107,265.11,195.168,265.192,192.559,266.308z"/>
									<path style="fill:#FFA430;" d="M187.417,279.488c0.883-0.555,1.832-1.006,2.828-1.341c1.004-0.304,2.041-0.496,3.09-0.586
										c2.101-0.144,4.222,0.129,6.246,0.724c4.079,1.203,7.574,3.794,10.635,6.632c3.092,2.847,5.77,6.069,8.732,8.963
										c2.944,2.888,6.201,5.541,9.999,7.051c3.784,1.53,7.989,1.782,12.065,1.277c4.098-0.486,8.097-1.66,12.081-2.849
										c3.985-1.209,7.998-2.452,12.139-3.135c4.122-0.653,8.44-0.74,12.44,0.527c-4.056-1.045-8.298-0.85-12.355-0.045
										c-4.079,0.773-8.033,2.086-11.993,3.385c-3.962,1.308-8.012,2.473-12.201,3.018c-4.167,0.547-8.556,0.334-12.549-1.253
										c-3.979-1.617-7.302-4.385-10.265-7.331c-2.972-2.969-5.654-6.162-8.62-9.053c-2.959-2.867-6.31-5.454-10.254-6.723
										c-1.954-0.651-4.017-0.994-6.086-0.926c-1.032,0.051-2.059,0.205-3.062,0.466
										C189.29,278.574,188.327,278.976,187.417,279.488z"/>
									<path style="fill:#FFA430;" d="M179.309,300.233c2.086-3.499,5.923-5.871,10.023-6.455c2.05-0.309,4.19-0.13,6.175,0.527
										c1.987,0.651,3.787,1.725,5.452,2.913c3.288,2.446,6.103,5.379,9.542,7.383c1.706,1.003,3.584,1.726,5.562,1.918
										c1.963,0.246,4.022-0.079,5.775-1.105c-1.633,1.223-3.764,1.687-5.813,1.594c-2.066-0.097-4.081-0.775-5.897-1.734
										c-3.659-1.951-6.516-4.943-9.757-7.248c-1.6-1.178-3.302-2.222-5.156-2.86c-1.842-0.654-3.835-0.803-5.789-0.628
										c-1.956,0.209-3.885,0.805-5.613,1.789C182.049,297.254,180.539,298.629,179.309,300.233z"/>
									<path style="fill:#FFA430;" d="M221.623,309.576c2.934-2.107,6.81-2.487,10.322-1.858c3.574,0.629,6.826,2.4,9.77,4.414
										c2.97,2.016,5.649,4.385,8.505,6.462c2.843,2.075,5.897,3.925,9.246,4.863c3.331,1.015,6.9,0.78,10.273-0.159
										c3.395-0.911,6.604-2.449,9.924-3.763c3.306-1.316,6.769-2.51,10.394-2.644c3.564-0.102,7.352,0.823,9.942,3.342
										c-2.736-2.337-6.441-3.106-9.918-2.852c-3.518,0.228-6.879,1.473-10.123,2.865c-3.246,1.414-6.496,2.945-9.976,3.93
										c-1.739,0.479-3.533,0.831-5.361,0.895c-1.824,0.077-3.674-0.148-5.427-0.652c-3.522-1.021-6.642-2.963-9.512-5.092
										c-2.873-2.147-5.552-4.487-8.407-6.568c-2.852-2.061-5.965-3.851-9.424-4.563
										C228.447,307.43,224.675,307.669,221.623,309.576z"/>
									<path style="fill:#FFA430;" d="M225.453,321.287c1.274-0.918,2.819-1.48,4.404-1.606c1.584-0.129,3.193,0.053,4.725,0.48
										c1.533,0.432,3.006,1.064,4.393,1.846c1.383,0.794,2.676,1.706,3.95,2.633c2.546,1.844,4.978,3.834,7.756,5.165
										c1.383,0.662,2.846,1.128,4.346,1.421c1.503,0.288,3.046,0.355,4.581,0.3c3.081-0.083,6.139-0.752,9.137-1.593
										c3.006-0.837,5.938-1.954,8.967-2.841c3.017-0.902,6.102-1.671,9.259-1.954c3.146-0.269,6.386,0.025,9.315,1.184
										c-3.002-0.943-6.18-1.123-9.264-0.697c-3.094,0.376-6.114,1.216-9.079,2.2c-5.901,1.969-11.859,4.424-18.301,4.698
										c-1.598,0.042-3.213-0.043-4.793-0.361c-1.577-0.322-3.122-0.832-4.564-1.54c-2.883-1.435-5.36-3.445-7.819-5.37
										c-1.236-0.956-2.489-1.893-3.806-2.701c-1.324-0.8-2.74-1.449-4.214-1.922c-1.469-0.485-3.02-0.736-4.57-0.684
										C228.327,320.003,226.789,320.458,225.453,321.287z"/>
								</g>
							</g>
						</g>
					</g>
				</g>
			</g>
			<g>
				<path style="fill:#FD6E74;" d="M427.856,196.666l-158.938,35.106c-5.619,1.241-9.167,6.802-7.926,12.421l23.675,107.185
					c1.241,5.619,6.802,9.167,12.421,7.926l60.174-13.291l22.81,11.651l15.78-20.175l60.174-13.291
					c5.619-1.241,9.167-6.802,7.926-12.421l-23.675-107.185C439.036,198.973,433.475,195.425,427.856,196.666z"/>
				<path style="fill:#FFFFFF;" d="M357.974,260.294c0,0-6.286-14.639-24.214-7.118c-8.964,3.761-11.143,11.175-11.08,17.648
					c0.066,6.887,2.916,13.444,7.629,18.466c6.157,6.559,17.971,16.651,36.777,23.163c1.437,0.498,3.029,0.185,4.151-0.842
					c6.128-5.611,25.646-25.012,26.717-45.392c0,0,0.893-23.603-22.767-22.447C375.186,243.771,357.642,246.12,357.974,260.294z"/>
			</g>
			<g>
				<path style="fill:#FFAE96;" d="M308.543,299.572c-1.332,0.801-2.664,1.591-4.01,2.232c2.127-0.159,4.191-0.886,6.306-1.125
					l2.023,0.984c-0.081,0.392-0.361,0.819-0.674,1.126c-2.21,2.191-5.512,3.017-8.594,3.867c-0.328,0.087-0.666,0.185-0.994,0.283
					c-2.028,0.566-4.033,1.212-6.018,1.908c-1.995,0.696-3.958,1.451-5.91,2.256c-0.248,0.106-0.495,0.231-0.762,0.348
					c-9.818,7.626-25.216,15.78-41.683,22.659c-33.528,14.02-71.507,22.81-75.881,11.317c-2.235-5.88-1.164-15.908,1.778-27.248
					c6.747-0.624,30.588-3.05,42.798-6.7l-1.014,1.584l4.287-1.038l62.233-15.036c0.559-0.493,1.158-0.957,1.718-1.44
					c2.315-1.993,4.241-4.368,5.632-6.96c0.403-0.749,0.775-1.528,1.402-2.133c0.626-0.605,1.597-1.007,2.424-0.746
					c0.746,0.243,1.192,0.953,1.269,1.681c0.076,0.718-0.157,1.454-0.441,2.151c-0.322,0.778-0.638,1.825,0.082,2.269
					c0.608,0.366,1.43-0.003,2.072-0.378c2.705-1.562,5.462-3.046,8.271-4.45c0.544-0.272,1.108-0.546,1.716-0.609
					c0.609-0.074,1.283,0.101,1.594,0.574c0.311,0.463,0.195,1.096-0.124,1.573c-0.329,0.488-0.821,0.849-1.303,1.2
					c-1.958,1.435-3.916,2.86-5.883,4.296c3.116-1.532,6.222-3.053,9.328-4.585c0.475-0.231,0.97-0.472,1.499-0.524
					c0.529-0.062,1.113,0.105,1.362,0.519c0.343,0.572-0.05,1.302-0.478,1.852c-2.353,2.945-6.127,4.571-9.734,6.074
					c3.122-0.822,6.244-1.643,9.366-2.465c0.696-0.186,1.583-0.306,1.985,0.215c0.289,0.374,0.151,0.937-0.17,1.314
					c-0.332,0.368-0.807,0.599-1.272,0.819C311.326,297.908,309.934,298.74,308.543,299.572z"/>
				<g style="opacity:0.5;">
					<path style="fill:#FFAE96;" d="M181.683,338.762c1.035,0.643,1.91,1.29,2.854,1.878c0.93,0.61,1.883,1.134,2.899,1.808
						c-1.226,0.095-2.418-0.327-3.438-0.966C182.992,340.82,182.111,339.914,181.683,338.762z"/>
					<path style="fill:#FFAE96;" d="M207.284,314.961c1.278-0.864,2.731-1.353,4.208-1.664c1.483-0.282,3.013-0.388,4.524-0.078
						c-1.461,0.482-2.892,0.757-4.329,1.058C210.244,314.548,208.818,314.844,207.284,314.961z"/>
				</g>
			</g>
		</g>
	</g>
	<g>
		<g>
			<path style="fill:#E5F7F9;" d="M171.829,149.946c0,0-2.042-5.072-8.253-2.632c-3.105,1.22-3.911,3.747-3.94,5.969
				c-0.031,2.364,0.895,4.636,2.473,6.396c2.061,2.299,6.036,5.854,12.437,8.236c0.489,0.182,1.038,0.088,1.431-0.256
				c2.147-1.877,8.996-8.381,9.523-15.366c0,0,0.491-8.092-7.636-7.881C177.865,144.412,171.827,145.08,171.829,149.946z"/>
			<path style="fill:#E5F7F9;" d="M202.42,131.962c0,0,0.334-3.327-3.722-3.769c-2.028-0.221-3.182,0.919-3.829,2.114
				c-0.688,1.271-0.832,2.765-0.477,4.166c0.464,1.83,1.606,4.885,4.397,7.993c0.213,0.238,0.537,0.342,0.848,0.268
				c1.696-0.407,7.252-1.984,9.521-5.618c0,0,2.564-4.243-1.898-6.437C207.261,130.679,203.801,129.326,202.42,131.962z"/>
			<path style="fill:#E5F7F9;" d="M173.635,106.335c0,0-1.455-3.011-5.144-1.266c-1.844,0.872-2.232,2.447-2.158,3.804
				c0.078,1.443,0.737,2.792,1.773,3.8c1.352,1.317,3.924,3.323,7.928,4.512c0.306,0.091,0.637,0.011,0.862-0.215
				c1.232-1.234,5.143-5.485,5.177-9.768c0,0-0.034-4.957-4.984-4.494C177.089,102.71,173.432,103.367,173.635,106.335z"/>
		</g>
		<path style="fill:#E5F7F9;" d="M584.849,183.682c0,0,0.439-3.315-3.602-3.884c-2.02-0.285-3.21,0.818-3.894,1.992
			c-0.728,1.249-0.918,2.737-0.607,4.149c0.406,1.844,1.452,4.933,4.144,8.127c0.206,0.244,0.526,0.359,0.839,0.294
			c1.708-0.354,7.311-1.756,9.693-5.316c0,0,2.696-4.16-1.694-6.493C589.728,182.551,586.312,181.09,584.849,183.682z"/>
	</g>
</g>
</svg>
